<svg version="1.1" xmlns="http://www.w3.org/2000/svg" viewBox="0 0 944 1096.2857142857142" width="400" height="200">
  <!-- svg-source:excalidraw -->
  
  <defs>
    <style class="style-fonts">
      @font-face {
        font-family: "Virgil";
        src: url("https://excalidraw.com/Virgil.woff2");
      }
      @font-face {
        font-family: "Cascadia";
        src: url("https://excalidraw.com/Cascadia.woff2");
      }
      @font-face {
        font-family: "Assistant";
        src: url("https://excalidraw.com/Assistant-Regular.woff2");
      }
    </style>
    
  </defs>
  <g stroke-linecap="round" transform="translate(222.5 136.28571428571416) rotate(0 258.5 320.5)"><path d="M32 0 C177.68 1.04, 320.05 1.04, 485 0 C503.67 0.12, 515.75 12.08, 517 32 C517.28 254.75, 518.26 476.85, 517 609 C518.96 627.86, 506.52 642.49, 485 641 C335.09 642.37, 183.91 643.43, 32 641 C7.64 639.67, -3.03 627.18, 0 609 C3.99 455.27, 3.64 302.14, 0 32 C0.66 12.15, 11.07 0.54, 32 0" stroke="none" stroke-width="0" fill="#1e1e1e"></path><path d="M32 0 C191.1 -0.6, 351.89 -0.01, 485 0 M32 0 C194.03 0.08, 356.23 0.58, 485 0 M485 0 C505.31 -1.36, 517.61 10.98, 517 32 M485 0 C507.55 1.52, 516.06 9.13, 517 32 M517 32 C515.42 164.58, 514.34 296.22, 517 609 M517 32 C515.24 235.17, 515.67 438.33, 517 609 M517 609 C516.56 631.38, 504.92 642.8, 485 641 M517 609 C516.7 629.72, 508.18 640.79, 485 641 M485 641 C362.67 642.14, 238.5 641.11, 32 641 M485 641 C337.47 639.47, 190.77 639.64, 32 641 M32 641 C9.67 642.89, 1.53 628.34, 0 609 M32 641 C10.56 639.1, -1.05 631.36, 0 609 M0 609 C-0.61 419.83, -0.37 230.7, 0 32 M0 609 C-0.37 449.39, -0.39 289.59, 0 32 M0 32 C-1.43 8.97, 12.35 -0.88, 32 0 M0 32 C1.88 8.81, 11.15 1.89, 32 0" stroke="#1e1e1e" stroke-width="4" fill="none"></path></g><g stroke-linecap="round" transform="translate(229.5 148.78571428571416) rotate(0 251 308.5)"><path d="M32 0 C183.8 4.57, 333.46 2.29, 470 0 C493.6 -2.58, 505.54 9.14, 502 32 C504.83 148.94, 504.05 263.65, 502 585 C499.25 605.49, 490.78 618.11, 470 617 C334.76 617.42, 199.86 615.76, 32 617 C7.12 619.87, 2.42 608.07, 0 585 C-1.61 425.59, -3.08 264.28, 0 32 C-1.83 11.56, 11.49 -0.45, 32 0" stroke="none" stroke-width="0" fill="#ffffff"></path><path d="M32 0 C198.96 -1.1, 366.77 -0.62, 470 0 M32 0 C131.45 1.81, 231.33 2.35, 470 0 M470 0 C493.25 1.81, 503.74 11.28, 502 32 M470 0 C493.13 -0.47, 500.19 12.08, 502 32 M502 32 C502.76 199.05, 504.16 365.82, 502 585 M502 32 C503.32 154.86, 503.22 277.65, 502 585 M502 585 C501.02 607.83, 492.2 616, 470 617 M502 585 C502.02 605.52, 490.86 618.68, 470 617 M470 617 C361.47 614.82, 250.74 614.91, 32 617 M470 617 C371.63 617.16, 273.21 617.11, 32 617 M32 617 C11.2 616.56, 0.93 606.46, 0 585 M32 617 C10.83 618.68, 1.39 605.63, 0 585 M0 585 C0.15 388.29, 0.66 191.07, 0 32 M0 585 C0.21 457.75, 0.02 330.38, 0 32 M0 32 C0.22 12.63, 11.61 1.89, 32 0 M0 32 C-1.39 12.19, 9.08 1.1, 32 0" stroke="#1e1e1e" stroke-width="4" fill="none"></path></g><g stroke-linecap="round" transform="translate(250.5 155.78571428571416) rotate(0 232.5 232.5)"><path d="M465 232.5 C465 237.37, 464.85 242.24, 464.54 247.1 C464.24 251.96, 463.78 256.81, 463.17 261.64 C462.56 266.47, 461.79 271.29, 460.88 276.07 C459.97 280.85, 458.91 285.61, 457.7 290.32 C456.49 295.03, 455.12 299.72, 453.62 304.35 C452.12 308.97, 450.46 313.56, 448.67 318.09 C446.88 322.61, 444.94 327.09, 442.87 331.49 C440.8 335.9, 438.59 340.24, 436.24 344.51 C433.9 348.77, 431.41 352.97, 428.81 357.08 C426.2 361.19, 423.46 365.22, 420.6 369.16 C417.74 373.1, 414.75 376.95, 411.64 380.7 C408.54 384.45, 405.32 388.11, 401.99 391.66 C398.65 395.2, 395.2 398.65, 391.66 401.99 C388.11 405.32, 384.45 408.54, 380.7 411.64 C376.95 414.75, 373.1 417.74, 369.16 420.6 C365.22 423.46, 361.19 426.2, 357.08 428.81 C352.97 431.41, 348.77 433.9, 344.51 436.24 C340.24 438.59, 335.9 440.8, 331.49 442.87 C327.09 444.94, 322.61 446.88, 318.09 448.67 C313.56 450.46, 308.97 452.12, 304.35 453.62 C299.72 455.12, 295.03 456.49, 290.32 457.7 C285.61 458.91, 280.85 459.97, 276.07 460.88 C271.29 461.79, 266.47 462.56, 261.64 463.17 C256.81 463.78, 251.96 464.24, 247.1 464.54 C242.24 464.85, 237.37 465, 232.5 465 C227.63 465, 222.76 464.85, 217.9 464.54 C213.04 464.24, 208.19 463.78, 203.36 463.17 C198.53 462.56, 193.71 461.79, 188.93 460.88 C184.15 459.97, 179.39 458.91, 174.68 457.7 C169.97 456.49, 165.28 455.12, 160.65 453.62 C156.03 452.12, 151.44 450.46, 146.91 448.67 C142.39 446.88, 137.91 444.94, 133.51 442.87 C129.1 440.8, 124.76 438.59, 120.49 436.24 C116.23 433.9, 112.03 431.41, 107.92 428.81 C103.81 426.2, 99.78 423.46, 95.84 420.6 C91.9 417.74, 88.05 414.75, 84.3 411.64 C80.55 408.54, 76.89 405.32, 73.34 401.99 C69.8 398.65, 66.35 395.2, 63.01 391.66 C59.68 388.11, 56.46 384.45, 53.36 380.7 C50.25 376.95, 47.26 373.1, 44.4 369.16 C41.54 365.22, 38.8 361.19, 36.19 357.08 C33.59 352.97, 31.1 348.77, 28.76 344.51 C26.41 340.24, 24.2 335.9, 22.13 331.49 C20.06 327.09, 18.12 322.61, 16.33 318.09 C14.54 313.56, 12.88 308.97, 11.38 304.35 C9.88 299.72, 8.51 295.03, 7.3 290.32 C6.09 285.61, 5.03 280.85, 4.12 276.07 C3.21 271.29, 2.44 266.47, 1.83 261.64 C1.22 256.81, 0.76 251.96, 0.46 247.1 C0.15 242.24, 0 237.37, 0 232.5 C0 227.63, 0.15 222.76, 0.46 217.9 C0.76 213.04, 1.22 208.19, 1.83 203.36 C2.44 198.53, 3.21 193.71, 4.12 188.93 C5.03 184.15, 6.09 179.39, 7.3 174.68 C8.51 169.97, 9.88 165.28, 11.38 160.65 C12.88 156.03, 14.54 151.44, 16.33 146.91 C18.12 142.39, 20.06 137.91, 22.13 133.51 C24.2 129.1, 26.41 124.76, 28.76 120.49 C31.1 116.23, 33.59 112.03, 36.19 107.92 C38.8 103.81, 41.54 99.78, 44.4 95.84 C47.26 91.9, 50.25 88.05, 53.36 84.3 C56.46 80.55, 59.68 76.89, 63.01 73.34 C66.35 69.8, 69.8 66.35, 73.34 63.01 C76.89 59.68, 80.55 56.46, 84.3 53.36 C88.05 50.25, 91.9 47.26, 95.84 44.4 C99.78 41.54, 103.81 38.8, 107.92 36.19 C112.03 33.59, 116.23 31.1, 120.49 28.76 C124.76 26.41, 129.1 24.2, 133.51 22.13 C137.91 20.06, 142.39 18.12, 146.91 16.33 C151.44 14.54, 156.03 12.88, 160.65 11.38 C165.28 9.88, 169.97 8.51, 174.68 7.3 C179.39 6.09, 184.15 5.03, 188.93 4.12 C193.71 3.21, 198.53 2.44, 203.36 1.83 C208.19 1.22, 213.04 0.76, 217.9 0.46 C222.76 0.15, 227.63 0, 232.5 0 C237.37 0, 242.24 0.15, 247.1 0.46 C251.96 0.76, 256.81 1.22, 261.64 1.83 C266.47 2.44, 271.29 3.21, 276.07 4.12 C280.85 5.03, 285.61 6.09, 290.32 7.3 C295.03 8.51, 299.72 9.88, 304.35 11.38 C308.97 12.88, 313.56 14.54, 318.09 16.33 C322.61 18.12, 327.09 20.06, 331.49 22.13 C335.9 24.2, 340.24 26.41, 344.51 28.76 C348.77 31.1, 352.97 33.59, 357.08 36.19 C361.19 38.8, 365.22 41.54, 369.16 44.4 C373.1 47.26, 376.95 50.25, 380.7 53.36 C384.45 56.46, 388.11 59.68, 391.66 63.01 C395.2 66.35, 398.65 69.8, 401.99 73.34 C405.32 76.89, 408.54 80.55, 411.64 84.3 C414.75 88.05, 417.74 91.9, 420.6 95.84 C423.46 99.78, 426.2 103.81, 428.81 107.92 C431.41 112.03, 433.9 116.23, 436.24 120.49 C438.59 124.76, 440.8 129.1, 442.87 133.51 C444.94 137.91, 446.88 142.39, 448.67 146.91 C450.46 151.44, 452.12 156.03, 453.62 160.65 C455.12 165.28, 456.49 169.97, 457.7 174.68 C458.91 179.39, 459.97 184.15, 460.88 188.93 C461.79 193.71, 462.56 198.53, 463.17 203.36 C463.78 208.19, 464.24 213.04, 464.54 217.9 C464.85 222.76, 464.92 230.07, 465 232.5 C465.08 234.93, 465.08 230.07, 465 232.5" stroke="none" stroke-width="0" fill="#1e1e1e"></path><path d="M465 232.5 C465 237.37, 464.85 242.24, 464.54 247.1 C464.24 251.96, 463.78 256.81, 463.17 261.64 C462.56 266.47, 461.79 271.29, 460.88 276.07 C459.97 280.85, 458.91 285.61, 457.7 290.32 C456.49 295.03, 455.12 299.72, 453.62 304.35 C452.12 308.97, 450.46 313.56, 448.67 318.09 C446.88 322.61, 444.94 327.09, 442.87 331.49 C440.8 335.9, 438.59 340.24, 436.24 344.51 C433.9 348.77, 431.41 352.97, 428.81 357.08 C426.2 361.19, 423.46 365.22, 420.6 369.16 C417.74 373.1, 414.75 376.95, 411.64 380.7 C408.54 384.45, 405.32 388.11, 401.99 391.66 C398.65 395.2, 395.2 398.65, 391.66 401.99 C388.11 405.32, 384.45 408.54, 380.7 411.64 C376.95 414.75, 373.1 417.74, 369.16 420.6 C365.22 423.46, 361.19 426.2, 357.08 428.81 C352.97 431.41, 348.77 433.9, 344.51 436.24 C340.24 438.59, 335.9 440.8, 331.49 442.87 C327.09 444.94, 322.61 446.88, 318.09 448.67 C313.56 450.46, 308.97 452.12, 304.35 453.62 C299.72 455.12, 295.03 456.49, 290.32 457.7 C285.61 458.91, 280.85 459.97, 276.07 460.88 C271.29 461.79, 266.47 462.56, 261.64 463.17 C256.81 463.78, 251.96 464.24, 247.1 464.54 C242.24 464.85, 237.37 465, 232.5 465 C227.63 465, 222.76 464.85, 217.9 464.54 C213.04 464.24, 208.19 463.78, 203.36 463.17 C198.53 462.56, 193.71 461.79, 188.93 460.88 C184.15 459.97, 179.39 458.91, 174.68 457.7 C169.97 456.49, 165.28 455.12, 160.65 453.62 C156.03 452.12, 151.44 450.46, 146.91 448.67 C142.39 446.88, 137.91 444.94, 133.51 442.87 C129.1 440.8, 124.76 438.59, 120.49 436.24 C116.23 433.9, 112.03 431.41, 107.92 428.81 C103.81 426.2, 99.78 423.46, 95.84 420.6 C91.9 417.74, 88.05 414.75, 84.3 411.64 C80.55 408.54, 76.89 405.32, 73.34 401.99 C69.8 398.65, 66.35 395.2, 63.01 391.66 C59.68 388.11, 56.46 384.45, 53.36 380.7 C50.25 376.95, 47.26 373.1, 44.4 369.16 C41.54 365.22, 38.8 361.19, 36.19 357.08 C33.59 352.97, 31.1 348.77, 28.76 344.51 C26.41 340.24, 24.2 335.9, 22.13 331.49 C20.06 327.09, 18.12 322.61, 16.33 318.09 C14.54 313.56, 12.88 308.97, 11.38 304.35 C9.88 299.72, 8.51 295.03, 7.3 290.32 C6.09 285.61, 5.03 280.85, 4.12 276.07 C3.21 271.29, 2.44 266.47, 1.83 261.64 C1.22 256.81, 0.76 251.96, 0.46 247.1 C0.15 242.24, 0 237.37, 0 232.5 C0 227.63, 0.15 222.76, 0.46 217.9 C0.76 213.04, 1.22 208.19, 1.83 203.36 C2.44 198.53, 3.21 193.71, 4.12 188.93 C5.03 184.15, 6.09 179.39, 7.3 174.68 C8.51 169.97, 9.88 165.28, 11.38 160.65 C12.88 156.03, 14.54 151.44, 16.33 146.91 C18.12 142.39, 20.06 137.91, 22.13 133.51 C24.2 129.1, 26.41 124.76, 28.76 120.49 C31.1 116.23, 33.59 112.03, 36.19 107.92 C38.8 103.81, 41.54 99.78, 44.4 95.84 C47.26 91.9, 50.25 88.05, 53.36 84.3 C56.46 80.55, 59.68 76.89, 63.01 73.34 C66.35 69.8, 69.8 66.35, 73.34 63.01 C76.89 59.68, 80.55 56.46, 84.3 53.36 C88.05 50.25, 91.9 47.26, 95.84 44.4 C99.78 41.54, 103.81 38.8, 107.92 36.19 C112.03 33.59, 116.23 31.1, 120.49 28.76 C124.76 26.41, 129.1 24.2, 133.51 22.13 C137.91 20.06, 142.39 18.12, 146.91 16.33 C151.44 14.54, 156.03 12.88, 160.65 11.38 C165.28 9.88, 169.97 8.51, 174.68 7.3 C179.39 6.09, 184.15 5.03, 188.93 4.12 C193.71 3.21, 198.53 2.44, 203.36 1.83 C208.19 1.22, 213.04 0.76, 217.9 0.46 C222.76 0.15, 227.63 0, 232.5 0 C237.37 0, 242.24 0.15, 247.1 0.46 C251.96 0.76, 256.81 1.22, 261.64 1.83 C266.47 2.44, 271.29 3.21, 276.07 4.12 C280.85 5.03, 285.61 6.09, 290.32 7.3 C295.03 8.51, 299.72 9.88, 304.35 11.38 C308.97 12.88, 313.56 14.54, 318.09 16.33 C322.61 18.12, 327.09 20.06, 331.49 22.13 C335.9 24.2, 340.24 26.41, 344.51 28.76 C348.77 31.1, 352.97 33.59, 357.08 36.19 C361.19 38.8, 365.22 41.54, 369.16 44.4 C373.1 47.26, 376.95 50.25, 380.7 53.36 C384.45 56.46, 388.11 59.68, 391.66 63.01 C395.2 66.35, 398.65 69.8, 401.99 73.34 C405.32 76.89, 408.54 80.55, 411.64 84.3 C414.75 88.05, 417.74 91.9, 420.6 95.84 C423.46 99.78, 426.2 103.81, 428.81 107.92 C431.41 112.03, 433.9 116.23, 436.24 120.49 C438.59 124.76, 440.8 129.1, 442.87 133.51 C444.94 137.91, 446.88 142.39, 448.67 146.91 C450.46 151.44, 452.12 156.03, 453.62 160.65 C455.12 165.28, 456.49 169.97, 457.7 174.68 C458.91 179.39, 459.97 184.15, 460.88 188.93 C461.79 193.71, 462.56 198.53, 463.17 203.36 C463.78 208.19, 464.24 213.04, 464.54 217.9 C464.85 222.76, 464.92 230.07, 465 232.5 C465.08 234.93, 465.08 230.07, 465 232.5" stroke="#1e1e1e" stroke-width="2" fill="none"></path></g><g stroke-linecap="round" transform="translate(271.5 179.78571428571416) rotate(0 207.5 207.5)"><path d="M415 207.5 C415 212.22, 414.84 216.95, 414.52 221.66 C414.19 226.37, 413.71 231.08, 413.07 235.75 C412.42 240.43, 411.62 245.1, 410.66 249.72 C409.7 254.34, 408.58 258.94, 407.31 263.48 C406.03 268.03, 404.6 272.54, 403.02 276.99 C401.44 281.44, 399.7 285.84, 397.82 290.17 C395.94 294.5, 393.91 298.77, 391.74 302.96 C389.56 307.15, 387.24 311.28, 384.79 315.31 C382.34 319.35, 379.74 323.3, 377.02 327.16 C374.3 331.02, 371.44 334.79, 368.46 338.45 C365.48 342.11, 362.37 345.68, 359.15 349.13 C355.93 352.58, 352.58 355.93, 349.13 359.15 C345.68 362.37, 342.11 365.48, 338.45 368.46 C334.79 371.44, 331.02 374.3, 327.16 377.02 C323.3 379.74, 319.35 382.34, 315.31 384.79 C311.28 387.24, 307.15 389.56, 302.96 391.74 C298.77 393.91, 294.5 395.94, 290.17 397.82 C285.84 399.7, 281.44 401.44, 276.99 403.02 C272.54 404.6, 268.03 406.03, 263.48 407.31 C258.94 408.58, 254.34 409.7, 249.72 410.66 C245.1 411.62, 240.43 412.42, 235.75 413.07 C231.08 413.71, 226.37 414.19, 221.66 414.52 C216.95 414.84, 212.22 415, 207.5 415 C202.78 415, 198.05 414.84, 193.34 414.52 C188.63 414.19, 183.92 413.71, 179.25 413.07 C174.57 412.42, 169.9 411.62, 165.28 410.66 C160.66 409.7, 156.06 408.58, 151.52 407.31 C146.97 406.03, 142.46 404.6, 138.01 403.02 C133.56 401.44, 129.16 399.7, 124.83 397.82 C120.5 395.94, 116.23 393.91, 112.04 391.74 C107.85 389.56, 103.72 387.24, 99.69 384.79 C95.65 382.34, 91.7 379.74, 87.84 377.02 C83.98 374.3, 80.21 371.44, 76.55 368.46 C72.89 365.48, 69.32 362.37, 65.87 359.15 C62.42 355.93, 59.07 352.58, 55.85 349.13 C52.63 345.68, 49.52 342.11, 46.54 338.45 C43.56 334.79, 40.7 331.02, 37.98 327.16 C35.26 323.3, 32.66 319.35, 30.21 315.31 C27.76 311.28, 25.44 307.15, 23.26 302.96 C21.09 298.77, 19.06 294.5, 17.18 290.17 C15.3 285.84, 13.56 281.44, 11.98 276.99 C10.4 272.54, 8.97 268.03, 7.69 263.48 C6.42 258.94, 5.3 254.34, 4.34 249.72 C3.38 245.1, 2.58 240.43, 1.93 235.75 C1.29 231.08, 0.81 226.37, 0.48 221.66 C0.16 216.95, 0 212.22, 0 207.5 C0 202.78, 0.16 198.05, 0.48 193.34 C0.81 188.63, 1.29 183.92, 1.93 179.25 C2.58 174.57, 3.38 169.9, 4.34 165.28 C5.3 160.66, 6.42 156.06, 7.69 151.52 C8.97 146.97, 10.4 142.46, 11.98 138.01 C13.56 133.56, 15.3 129.16, 17.18 124.83 C19.06 120.5, 21.09 116.23, 23.26 112.04 C25.44 107.85, 27.76 103.72, 30.21 99.69 C32.66 95.65, 35.26 91.7, 37.98 87.84 C40.7 83.98, 43.56 80.21, 46.54 76.55 C49.52 72.89, 52.63 69.32, 55.85 65.87 C59.07 62.42, 62.42 59.07, 65.87 55.85 C69.32 52.63, 72.89 49.52, 76.55 46.54 C80.21 43.56, 83.98 40.7, 87.84 37.98 C91.7 35.26, 95.65 32.66, 99.69 30.21 C103.72 27.76, 107.85 25.44, 112.04 23.26 C116.23 21.09, 120.5 19.06, 124.83 17.18 C129.16 15.3, 133.56 13.56, 138.01 11.98 C142.46 10.4, 146.97 8.97, 151.52 7.69 C156.06 6.42, 160.66 5.3, 165.28 4.34 C169.9 3.38, 174.57 2.58, 179.25 1.93 C183.92 1.29, 188.63 0.81, 193.34 0.48 C198.05 0.16, 202.78 0, 207.5 0 C212.22 0, 216.95 0.16, 221.66 0.48 C226.37 0.81, 231.08 1.29, 235.75 1.93 C240.43 2.58, 245.1 3.38, 249.72 4.34 C254.34 5.3, 258.94 6.42, 263.48 7.69 C268.03 8.97, 272.54 10.4, 276.99 11.98 C281.44 13.56, 285.84 15.3, 290.17 17.18 C294.5 19.06, 298.77 21.09, 302.96 23.26 C307.15 25.44, 311.28 27.76, 315.31 30.21 C319.35 32.66, 323.3 35.26, 327.16 37.98 C331.02 40.7, 334.79 43.56, 338.45 46.54 C342.11 49.52, 345.68 52.63, 349.13 55.85 C352.58 59.07, 355.93 62.42, 359.15 65.87 C362.37 69.32, 365.48 72.89, 368.46 76.55 C371.44 80.21, 374.3 83.98, 377.02 87.84 C379.74 91.7, 382.34 95.65, 384.79 99.69 C387.24 103.72, 389.56 107.85, 391.74 112.04 C393.91 116.23, 395.94 120.5, 397.82 124.83 C399.7 129.16, 401.44 133.56, 403.02 138.01 C404.6 142.46, 406.03 146.97, 407.31 151.52 C408.58 156.06, 409.7 160.66, 410.66 165.28 C411.62 169.9, 412.42 174.57, 413.07 179.25 C413.71 183.92, 414.19 188.63, 414.52 193.34 C414.84 198.05, 415 202.78, 415 207.5" stroke="none" stroke-width="0" fill="#ffffff"></path><path d="M415 207.5 C415 212.22, 414.84 216.95, 414.52 221.66 C414.19 226.37, 413.71 231.08, 413.07 235.75 C412.42 240.43, 411.62 245.1, 410.66 249.72 C409.7 254.34, 408.58 258.94, 407.31 263.48 C406.03 268.03, 404.6 272.54, 403.02 276.99 C401.44 281.44, 399.7 285.84, 397.82 290.17 C395.94 294.5, 393.91 298.77, 391.74 302.96 C389.56 307.15, 387.24 311.28, 384.79 315.31 C382.34 319.35, 379.74 323.3, 377.02 327.16 C374.3 331.02, 371.44 334.79, 368.46 338.45 C365.48 342.11, 362.37 345.68, 359.15 349.13 C355.93 352.58, 352.58 355.93, 349.13 359.15 C345.68 362.37, 342.11 365.48, 338.45 368.46 C334.79 371.44, 331.02 374.3, 327.16 377.02 C323.3 379.74, 319.35 382.34, 315.31 384.79 C311.28 387.24, 307.15 389.56, 302.96 391.74 C298.77 393.91, 294.5 395.94, 290.17 397.82 C285.84 399.7, 281.44 401.44, 276.99 403.02 C272.54 404.6, 268.03 406.03, 263.48 407.31 C258.94 408.58, 254.34 409.7, 249.72 410.66 C245.1 411.62, 240.43 412.42, 235.75 413.07 C231.08 413.71, 226.37 414.19, 221.66 414.52 C216.95 414.84, 212.22 415, 207.5 415 C202.78 415, 198.05 414.84, 193.34 414.52 C188.63 414.19, 183.92 413.71, 179.25 413.07 C174.57 412.42, 169.9 411.62, 165.28 410.66 C160.66 409.7, 156.06 408.58, 151.52 407.31 C146.97 406.03, 142.46 404.6, 138.01 403.02 C133.56 401.44, 129.16 399.7, 124.83 397.82 C120.5 395.94, 116.23 393.91, 112.04 391.74 C107.85 389.56, 103.72 387.24, 99.69 384.79 C95.65 382.34, 91.7 379.74, 87.84 377.02 C83.98 374.3, 80.21 371.44, 76.55 368.46 C72.89 365.48, 69.32 362.37, 65.87 359.15 C62.42 355.93, 59.07 352.58, 55.85 349.13 C52.63 345.68, 49.52 342.11, 46.54 338.45 C43.56 334.79, 40.7 331.02, 37.98 327.16 C35.26 323.3, 32.66 319.35, 30.21 315.31 C27.76 311.28, 25.44 307.15, 23.26 302.96 C21.09 298.77, 19.06 294.5, 17.18 290.17 C15.3 285.84, 13.56 281.44, 11.98 276.99 C10.4 272.54, 8.97 268.03, 7.69 263.48 C6.42 258.94, 5.3 254.34, 4.34 249.72 C3.38 245.1, 2.58 240.43, 1.93 235.75 C1.29 231.08, 0.81 226.37, 0.48 221.66 C0.16 216.95, 0 212.22, 0 207.5 C0 202.78, 0.16 198.05, 0.48 193.34 C0.81 188.63, 1.29 183.92, 1.93 179.25 C2.58 174.57, 3.38 169.9, 4.34 165.28 C5.3 160.66, 6.42 156.06, 7.69 151.52 C8.97 146.97, 10.4 142.46, 11.98 138.01 C13.56 133.56, 15.3 129.16, 17.18 124.83 C19.06 120.5, 21.09 116.23, 23.26 112.04 C25.44 107.85, 27.76 103.72, 30.21 99.69 C32.66 95.65, 35.26 91.7, 37.98 87.84 C40.7 83.98, 43.56 80.21, 46.54 76.55 C49.52 72.89, 52.63 69.32, 55.85 65.87 C59.07 62.42, 62.42 59.07, 65.87 55.85 C69.32 52.63, 72.89 49.52, 76.55 46.54 C80.21 43.56, 83.98 40.7, 87.84 37.98 C91.7 35.26, 95.65 32.66, 99.69 30.21 C103.72 27.76, 107.85 25.44, 112.04 23.26 C116.23 21.09, 120.5 19.06, 124.83 17.18 C129.16 15.3, 133.56 13.56, 138.01 11.98 C142.46 10.4, 146.97 8.97, 151.52 7.69 C156.06 6.42, 160.66 5.3, 165.28 4.34 C169.9 3.38, 174.57 2.58, 179.25 1.93 C183.92 1.29, 188.63 0.81, 193.34 0.48 C198.05 0.16, 202.78 0, 207.5 0 C212.22 0, 216.95 0.16, 221.66 0.48 C226.37 0.81, 231.08 1.29, 235.75 1.93 C240.43 2.58, 245.1 3.38, 249.72 4.34 C254.34 5.3, 258.94 6.42, 263.48 7.69 C268.03 8.97, 272.54 10.4, 276.99 11.98 C281.44 13.56, 285.84 15.3, 290.17 17.18 C294.5 19.06, 298.77 21.09, 302.96 23.26 C307.15 25.44, 311.28 27.76, 315.31 30.21 C319.35 32.66, 323.3 35.26, 327.16 37.98 C331.02 40.7, 334.79 43.56, 338.45 46.54 C342.11 49.52, 345.68 52.63, 349.13 55.85 C352.58 59.07, 355.93 62.42, 359.15 65.87 C362.37 69.32, 365.48 72.89, 368.46 76.55 C371.44 80.21, 374.3 83.98, 377.02 87.84 C379.74 91.7, 382.34 95.65, 384.79 99.69 C387.24 103.72, 389.56 107.85, 391.74 112.04 C393.91 116.23, 395.94 120.5, 397.82 124.83 C399.7 129.16, 401.44 133.56, 403.02 138.01 C404.6 142.46, 406.03 146.97, 407.31 151.52 C408.58 156.06, 409.7 160.66, 410.66 165.28 C411.62 169.9, 412.42 174.57, 413.07 179.25 C413.71 183.92, 414.19 188.63, 414.52 193.34 C414.84 198.05, 415 202.78, 415 207.5" stroke="#1e1e1e" stroke-width="2" fill="none"></path></g><g stroke-linecap="round" transform="translate(57.5 795.7857142857142) rotate(0 55.5 55.5)"><path d="M111 55.5 C111 57.91, 110.84 60.35, 110.53 62.74 C110.21 65.14, 109.73 67.53, 109.11 69.86 C108.48 72.2, 107.7 74.51, 106.78 76.74 C105.85 78.97, 104.77 81.16, 103.56 83.25 C102.36 85.34, 101 87.37, 99.53 89.29 C98.06 91.2, 96.45 93.04, 94.74 94.74 C93.04 96.45, 91.2 98.06, 89.29 99.53 C87.37 101, 85.34 102.36, 83.25 103.56 C81.16 104.77, 78.97 105.85, 76.74 106.78 C74.51 107.7, 72.2 108.48, 69.86 109.11 C67.53 109.73, 65.14 110.21, 62.74 110.53 C60.35 110.84, 57.91 111, 55.5 111 C53.09 111, 50.65 110.84, 48.26 110.53 C45.86 110.21, 43.47 109.73, 41.14 109.11 C38.8 108.48, 36.49 107.7, 34.26 106.78 C32.03 105.85, 29.84 104.77, 27.75 103.56 C25.66 102.36, 23.63 101, 21.71 99.53 C19.8 98.06, 17.96 96.45, 16.26 94.74 C14.55 93.04, 12.94 91.2, 11.47 89.29 C10 87.37, 8.64 85.34, 7.44 83.25 C6.23 81.16, 5.15 78.97, 4.22 76.74 C3.3 74.51, 2.52 72.2, 1.89 69.86 C1.27 67.53, 0.79 65.14, 0.47 62.74 C0.16 60.35, 0 57.91, 0 55.5 C0 53.09, 0.16 50.65, 0.47 48.26 C0.79 45.86, 1.27 43.47, 1.89 41.14 C2.52 38.8, 3.3 36.49, 4.22 34.26 C5.15 32.03, 6.23 29.84, 7.44 27.75 C8.64 25.66, 10 23.63, 11.47 21.71 C12.94 19.8, 14.55 17.96, 16.26 16.26 C17.96 14.55, 19.8 12.94, 21.71 11.47 C23.63 10, 25.66 8.64, 27.75 7.44 C29.84 6.23, 32.03 5.15, 34.26 4.22 C36.49 3.3, 38.8 2.52, 41.14 1.89 C43.47 1.27, 45.86 0.79, 48.26 0.47 C50.65 0.16, 53.09 0, 55.5 0 C57.91 0, 60.35 0.16, 62.74 0.47 C65.14 0.79, 67.53 1.27, 69.86 1.89 C72.2 2.52, 74.51 3.3, 76.74 4.22 C78.97 5.15, 81.16 6.23, 83.25 7.44 C85.34 8.64, 87.37 10, 89.29 11.47 C91.2 12.94, 93.04 14.55, 94.74 16.26 C96.45 17.96, 98.06 19.8, 99.53 21.71 C101 23.63, 102.36 25.66, 103.56 27.75 C104.77 29.84, 105.85 32.03, 106.78 34.26 C107.7 36.49, 108.48 38.8, 109.11 41.14 C109.73 43.47, 110.21 45.86, 110.53 48.26 C110.84 50.65, 110.92 54.29, 111 55.5 C111.08 56.71, 111.08 54.29, 111 55.5" stroke="none" stroke-width="0" fill="#1e1e1e"></path><path d="M111 55.5 C111 57.91, 110.84 60.35, 110.53 62.74 C110.21 65.14, 109.73 67.53, 109.11 69.86 C108.48 72.2, 107.7 74.51, 106.78 76.74 C105.85 78.97, 104.77 81.16, 103.56 83.25 C102.36 85.34, 101 87.37, 99.53 89.29 C98.06 91.2, 96.45 93.04, 94.74 94.74 C93.04 96.45, 91.2 98.06, 89.29 99.53 C87.37 101, 85.34 102.36, 83.25 103.56 C81.16 104.77, 78.97 105.85, 76.74 106.78 C74.51 107.7, 72.2 108.48, 69.86 109.11 C67.53 109.73, 65.14 110.21, 62.74 110.53 C60.35 110.84, 57.91 111, 55.5 111 C53.09 111, 50.65 110.84, 48.26 110.53 C45.86 110.21, 43.47 109.73, 41.14 109.11 C38.8 108.48, 36.49 107.7, 34.26 106.78 C32.03 105.85, 29.84 104.77, 27.75 103.56 C25.66 102.36, 23.63 101, 21.71 99.53 C19.8 98.06, 17.96 96.45, 16.26 94.74 C14.55 93.04, 12.94 91.2, 11.47 89.29 C10 87.37, 8.64 85.34, 7.44 83.25 C6.23 81.16, 5.15 78.97, 4.22 76.74 C3.3 74.51, 2.52 72.2, 1.89 69.86 C1.27 67.53, 0.79 65.14, 0.47 62.74 C0.16 60.35, 0 57.91, 0 55.5 C0 53.09, 0.16 50.65, 0.47 48.26 C0.79 45.86, 1.27 43.47, 1.89 41.14 C2.52 38.8, 3.3 36.49, 4.22 34.26 C5.15 32.03, 6.23 29.84, 7.44 27.75 C8.64 25.66, 10 23.63, 11.47 21.71 C12.94 19.8, 14.55 17.96, 16.26 16.26 C17.96 14.55, 19.8 12.94, 21.71 11.47 C23.63 10, 25.66 8.64, 27.75 7.44 C29.84 6.23, 32.03 5.15, 34.26 4.22 C36.49 3.3, 38.8 2.52, 41.14 1.89 C43.47 1.27, 45.86 0.79, 48.26 0.47 C50.65 0.16, 53.09 0, 55.5 0 C57.91 0, 60.35 0.16, 62.74 0.47 C65.14 0.79, 67.53 1.27, 69.86 1.89 C72.2 2.52, 74.51 3.3, 76.74 4.22 C78.97 5.15, 81.16 6.23, 83.25 7.44 C85.34 8.64, 87.37 10, 89.29 11.47 C91.2 12.94, 93.04 14.55, 94.74 16.26 C96.45 17.96, 98.06 19.8, 99.53 21.71 C101 23.63, 102.36 25.66, 103.56 27.75 C104.77 29.84, 105.85 32.03, 106.78 34.26 C107.7 36.49, 108.48 38.8, 109.11 41.14 C109.73 43.47, 110.21 45.86, 110.53 48.26 C110.84 50.65, 110.92 54.29, 111 55.5 C111.08 56.71, 111.08 54.29, 111 55.5" stroke="#1e1e1e" stroke-width="2" fill="none"></path></g><g stroke-linecap="round" transform="translate(286 891.2857142857142) rotate(0 55.5 55.5)"><path d="M111 55.5 C111 57.91, 110.84 60.35, 110.53 62.74 C110.21 65.14, 109.73 67.53, 109.11 69.86 C108.48 72.2, 107.7 74.51, 106.78 76.74 C105.85 78.97, 104.77 81.16, 103.56 83.25 C102.36 85.34, 101 87.37, 99.53 89.29 C98.06 91.2, 96.45 93.04, 94.74 94.74 C93.04 96.45, 91.2 98.06, 89.29 99.53 C87.37 101, 85.34 102.36, 83.25 103.56 C81.16 104.77, 78.97 105.85, 76.74 106.78 C74.51 107.7, 72.2 108.48, 69.86 109.11 C67.53 109.73, 65.14 110.21, 62.74 110.53 C60.35 110.84, 57.91 111, 55.5 111 C53.09 111, 50.65 110.84, 48.26 110.53 C45.86 110.21, 43.47 109.73, 41.14 109.11 C38.8 108.48, 36.49 107.7, 34.26 106.78 C32.03 105.85, 29.84 104.77, 27.75 103.56 C25.66 102.36, 23.63 101, 21.71 99.53 C19.8 98.06, 17.96 96.45, 16.26 94.74 C14.55 93.04, 12.94 91.2, 11.47 89.29 C10 87.37, 8.64 85.34, 7.44 83.25 C6.23 81.16, 5.15 78.97, 4.22 76.74 C3.3 74.51, 2.52 72.2, 1.89 69.86 C1.27 67.53, 0.79 65.14, 0.47 62.74 C0.16 60.35, 0 57.91, 0 55.5 C0 53.09, 0.16 50.65, 0.47 48.26 C0.79 45.86, 1.27 43.47, 1.89 41.14 C2.52 38.8, 3.3 36.49, 4.22 34.26 C5.15 32.03, 6.23 29.84, 7.44 27.75 C8.64 25.66, 10 23.63, 11.47 21.71 C12.94 19.8, 14.55 17.96, 16.26 16.26 C17.96 14.55, 19.8 12.94, 21.71 11.47 C23.63 10, 25.66 8.64, 27.75 7.44 C29.84 6.23, 32.03 5.15, 34.26 4.22 C36.49 3.3, 38.8 2.52, 41.14 1.89 C43.47 1.27, 45.86 0.79, 48.26 0.47 C50.65 0.16, 53.09 0, 55.5 0 C57.91 0, 60.35 0.16, 62.74 0.47 C65.14 0.79, 67.53 1.27, 69.86 1.89 C72.2 2.52, 74.51 3.3, 76.74 4.22 C78.97 5.15, 81.16 6.23, 83.25 7.44 C85.34 8.64, 87.37 10, 89.29 11.47 C91.2 12.94, 93.04 14.55, 94.74 16.26 C96.45 17.96, 98.06 19.8, 99.53 21.71 C101 23.63, 102.36 25.66, 103.56 27.75 C104.77 29.84, 105.85 32.03, 106.78 34.26 C107.7 36.49, 108.48 38.8, 109.11 41.14 C109.73 43.47, 110.21 45.86, 110.53 48.26 C110.84 50.65, 110.92 54.29, 111 55.5 C111.08 56.71, 111.08 54.29, 111 55.5" stroke="none" stroke-width="0" fill="#1e1e1e"></path><path d="M111 55.5 C111 57.91, 110.84 60.35, 110.53 62.74 C110.21 65.14, 109.73 67.53, 109.11 69.86 C108.48 72.2, 107.7 74.51, 106.78 76.74 C105.85 78.97, 104.77 81.16, 103.56 83.25 C102.36 85.34, 101 87.37, 99.53 89.29 C98.06 91.2, 96.45 93.04, 94.74 94.74 C93.04 96.45, 91.2 98.06, 89.29 99.53 C87.37 101, 85.34 102.36, 83.25 103.56 C81.16 104.77, 78.97 105.85, 76.74 106.78 C74.51 107.7, 72.2 108.48, 69.86 109.11 C67.53 109.73, 65.14 110.21, 62.74 110.53 C60.35 110.84, 57.91 111, 55.5 111 C53.09 111, 50.65 110.84, 48.26 110.53 C45.86 110.21, 43.47 109.73, 41.14 109.11 C38.8 108.48, 36.49 107.7, 34.26 106.78 C32.03 105.85, 29.84 104.77, 27.75 103.56 C25.66 102.36, 23.63 101, 21.71 99.53 C19.8 98.06, 17.96 96.45, 16.26 94.74 C14.55 93.04, 12.94 91.2, 11.47 89.29 C10 87.37, 8.64 85.34, 7.44 83.25 C6.23 81.16, 5.15 78.97, 4.22 76.74 C3.3 74.51, 2.52 72.2, 1.89 69.86 C1.27 67.53, 0.79 65.14, 0.47 62.74 C0.16 60.35, 0 57.91, 0 55.5 C0 53.09, 0.16 50.65, 0.47 48.26 C0.79 45.86, 1.27 43.47, 1.89 41.14 C2.52 38.8, 3.3 36.49, 4.22 34.26 C5.15 32.03, 6.23 29.84, 7.44 27.75 C8.64 25.66, 10 23.63, 11.47 21.71 C12.94 19.8, 14.55 17.96, 16.26 16.26 C17.96 14.55, 19.8 12.94, 21.71 11.47 C23.63 10, 25.66 8.64, 27.75 7.44 C29.84 6.23, 32.03 5.15, 34.26 4.22 C36.49 3.3, 38.8 2.52, 41.14 1.89 C43.47 1.27, 45.86 0.79, 48.26 0.47 C50.65 0.16, 53.09 0, 55.5 0 C57.91 0, 60.35 0.16, 62.74 0.47 C65.14 0.79, 67.53 1.27, 69.86 1.89 C72.2 2.52, 74.51 3.3, 76.74 4.22 C78.97 5.15, 81.16 6.23, 83.25 7.44 C85.34 8.64, 87.37 10, 89.29 11.47 C91.2 12.94, 93.04 14.55, 94.74 16.26 C96.45 17.96, 98.06 19.8, 99.53 21.71 C101 23.63, 102.36 25.66, 103.56 27.75 C104.77 29.84, 105.85 32.03, 106.78 34.26 C107.7 36.49, 108.48 38.8, 109.11 41.14 C109.73 43.47, 110.21 45.86, 110.53 48.26 C110.84 50.65, 110.92 54.29, 111 55.5 C111.08 56.71, 111.08 54.29, 111 55.5" stroke="#1e1e1e" stroke-width="2" fill="none"></path></g><g stroke-linecap="round" transform="translate(10 975.2857142857142) rotate(0 55.5 55.5)"><path d="M111 55.5 C111 57.91, 110.84 60.35, 110.53 62.74 C110.21 65.14, 109.73 67.53, 109.11 69.86 C108.48 72.2, 107.7 74.51, 106.78 76.74 C105.85 78.97, 104.77 81.16, 103.56 83.25 C102.36 85.34, 101 87.37, 99.53 89.29 C98.06 91.2, 96.45 93.04, 94.74 94.74 C93.04 96.45, 91.2 98.06, 89.29 99.53 C87.37 101, 85.34 102.36, 83.25 103.56 C81.16 104.77, 78.97 105.85, 76.74 106.78 C74.51 107.7, 72.2 108.48, 69.86 109.11 C67.53 109.73, 65.14 110.21, 62.74 110.53 C60.35 110.84, 57.91 111, 55.5 111 C53.09 111, 50.65 110.84, 48.26 110.53 C45.86 110.21, 43.47 109.73, 41.14 109.11 C38.8 108.48, 36.49 107.7, 34.26 106.78 C32.03 105.85, 29.84 104.77, 27.75 103.56 C25.66 102.36, 23.63 101, 21.71 99.53 C19.8 98.06, 17.96 96.45, 16.26 94.74 C14.55 93.04, 12.94 91.2, 11.47 89.29 C10 87.37, 8.64 85.34, 7.44 83.25 C6.23 81.16, 5.15 78.97, 4.22 76.74 C3.3 74.51, 2.52 72.2, 1.89 69.86 C1.27 67.53, 0.79 65.14, 0.47 62.74 C0.16 60.35, 0 57.91, 0 55.5 C0 53.09, 0.16 50.65, 0.47 48.26 C0.79 45.86, 1.27 43.47, 1.89 41.14 C2.52 38.8, 3.3 36.49, 4.22 34.26 C5.15 32.03, 6.23 29.84, 7.44 27.75 C8.64 25.66, 10 23.63, 11.47 21.71 C12.94 19.8, 14.55 17.96, 16.26 16.26 C17.96 14.55, 19.8 12.94, 21.71 11.47 C23.63 10, 25.66 8.64, 27.75 7.44 C29.84 6.23, 32.03 5.15, 34.26 4.22 C36.49 3.3, 38.8 2.52, 41.14 1.89 C43.47 1.27, 45.86 0.79, 48.26 0.47 C50.65 0.16, 53.09 0, 55.5 0 C57.91 0, 60.35 0.16, 62.74 0.47 C65.14 0.79, 67.53 1.27, 69.86 1.89 C72.2 2.52, 74.51 3.3, 76.74 4.22 C78.97 5.15, 81.16 6.23, 83.25 7.44 C85.34 8.64, 87.37 10, 89.29 11.47 C91.2 12.94, 93.04 14.55, 94.74 16.26 C96.45 17.96, 98.06 19.8, 99.53 21.71 C101 23.63, 102.36 25.66, 103.56 27.75 C104.77 29.84, 105.85 32.03, 106.78 34.26 C107.7 36.49, 108.48 38.8, 109.11 41.14 C109.73 43.47, 110.21 45.86, 110.53 48.26 C110.84 50.65, 110.92 54.29, 111 55.5 C111.08 56.71, 111.08 54.29, 111 55.5" stroke="none" stroke-width="0" fill="#ffffff"></path><path d="M111 55.5 C111 57.91, 110.84 60.35, 110.53 62.74 C110.21 65.14, 109.73 67.53, 109.11 69.86 C108.48 72.2, 107.7 74.51, 106.78 76.74 C105.85 78.97, 104.77 81.16, 103.56 83.25 C102.36 85.34, 101 87.37, 99.53 89.29 C98.06 91.2, 96.45 93.04, 94.74 94.74 C93.04 96.45, 91.2 98.06, 89.29 99.53 C87.37 101, 85.34 102.36, 83.25 103.56 C81.16 104.77, 78.97 105.85, 76.74 106.78 C74.51 107.7, 72.2 108.48, 69.86 109.11 C67.53 109.73, 65.14 110.21, 62.74 110.53 C60.35 110.84, 57.91 111, 55.5 111 C53.09 111, 50.65 110.84, 48.26 110.53 C45.86 110.21, 43.47 109.73, 41.14 109.11 C38.8 108.48, 36.49 107.7, 34.26 106.78 C32.03 105.85, 29.84 104.77, 27.75 103.56 C25.66 102.36, 23.63 101, 21.71 99.53 C19.8 98.06, 17.96 96.45, 16.26 94.74 C14.55 93.04, 12.94 91.2, 11.47 89.29 C10 87.37, 8.64 85.34, 7.44 83.25 C6.23 81.16, 5.15 78.97, 4.22 76.74 C3.3 74.51, 2.52 72.2, 1.89 69.86 C1.27 67.53, 0.79 65.14, 0.47 62.74 C0.16 60.35, 0 57.91, 0 55.5 C0 53.09, 0.16 50.65, 0.47 48.26 C0.79 45.86, 1.27 43.47, 1.89 41.14 C2.52 38.8, 3.3 36.49, 4.22 34.26 C5.15 32.03, 6.23 29.84, 7.44 27.75 C8.64 25.66, 10 23.63, 11.47 21.71 C12.94 19.8, 14.55 17.96, 16.26 16.26 C17.96 14.55, 19.8 12.94, 21.71 11.47 C23.63 10, 25.66 8.64, 27.75 7.44 C29.84 6.23, 32.03 5.15, 34.26 4.22 C36.49 3.3, 38.8 2.52, 41.14 1.89 C43.47 1.27, 45.86 0.79, 48.26 0.47 C50.65 0.16, 53.09 0, 55.5 0 C57.91 0, 60.35 0.16, 62.74 0.47 C65.14 0.79, 67.53 1.27, 69.86 1.89 C72.2 2.52, 74.51 3.3, 76.74 4.22 C78.97 5.15, 81.16 6.23, 83.25 7.44 C85.34 8.64, 87.37 10, 89.29 11.47 C91.2 12.94, 93.04 14.55, 94.74 16.26 C96.45 17.96, 98.06 19.8, 99.53 21.71 C101 23.63, 102.36 25.66, 103.56 27.75 C104.77 29.84, 105.85 32.03, 106.78 34.26 C107.7 36.49, 108.48 38.8, 109.11 41.14 C109.73 43.47, 110.21 45.86, 110.53 48.26 C110.84 50.65, 110.92 54.29, 111 55.5 C111.08 56.71, 111.08 54.29, 111 55.5" stroke="#1e1e1e" stroke-width="4" fill="none"></path></g><g stroke-linecap="round"><g transform="translate(70.65151854948613 966.9855429957067) rotate(0 12.482265572539745 -27.591451605799193)"><path d="M0 0 C4.16 -9.2, 20.8 -45.99, 24.96 -55.18 M0 0 C4.16 -9.2, 20.8 -45.99, 24.96 -55.18" stroke="#1e1e1e" stroke-width="4" fill="none"></path></g><g transform="translate(70.65151854948613 966.9855429957067) rotate(0 12.482265572539745 -27.591451605799193)"><path d="M23.07 -30.25 C23.65 -37.93, 24.24 -45.61, 24.96 -55.18 M23.07 -30.25 C23.81 -39.97, 24.55 -49.68, 24.96 -55.18" stroke="#1e1e1e" stroke-width="4" fill="none"></path></g><g transform="translate(70.65151854948613 966.9855429957067) rotate(0 12.482265572539745 -27.591451605799193)"><path d="M7.49 -37.3 C12.87 -42.81, 18.25 -48.31, 24.96 -55.18 M7.49 -37.3 C14.3 -44.27, 21.11 -51.24, 24.96 -55.18" stroke="#1e1e1e" stroke-width="4" fill="none"></path></g></g><mask></mask><g stroke-linecap="round"><g transform="translate(291.3921955650558 918.9790975424035) rotate(0 -62.5156871367044 -24.561316688675788)"><path d="M0 0 C-20.84 -8.19, -104.19 -40.94, -125.03 -49.12 M0 0 C-20.84 -8.19, -104.19 -40.94, -125.03 -49.12" stroke="#1e1e1e" stroke-width="4" fill="none"></path></g><g transform="translate(291.3921955650558 918.9790975424035) rotate(0 -62.5156871367044 -24.561316688675788)"><path d="M-100.04 -48.49 C-107.87 -48.69, -115.7 -48.89, -125.03 -49.12 M-100.04 -48.49 C-108.54 -48.71, -117.04 -48.92, -125.03 -49.12" stroke="#1e1e1e" stroke-width="4" fill="none"></path></g><g transform="translate(291.3921955650558 918.9790975424035) rotate(0 -62.5156871367044 -24.561316688675788)"><path d="M-106.29 -32.57 C-112.16 -37.76, -118.04 -42.94, -125.03 -49.12 M-106.29 -32.57 C-112.67 -38.2, -119.04 -43.83, -125.03 -49.12" stroke="#1e1e1e" stroke-width="4" fill="none"></path></g></g><mask></mask><g stroke-linecap="round"><g transform="translate(170.5 815.7857142857142) rotate(0 44 -45.5)"><path d="M0 0 C14.67 -15.17, 73.33 -75.83, 88 -91 M0 0 C14.67 -15.17, 73.33 -75.83, 88 -91" stroke="#1e1e1e" stroke-width="4" fill="none"></path></g><g transform="translate(170.5 815.7857142857142) rotate(0 44 -45.5)"><path d="M77.82 -68.17 C81.34 -76.06, 84.86 -83.96, 88 -91 M77.82 -68.17 C81.41 -76.22, 85 -84.26, 88 -91" stroke="#1e1e1e" stroke-width="4" fill="none"></path></g><g transform="translate(170.5 815.7857142857142) rotate(0 44 -45.5)"><path d="M65.52 -80.06 C73.3 -83.84, 81.07 -87.63, 88 -91 M65.52 -80.06 C73.45 -83.91, 81.37 -87.77, 88 -91" stroke="#1e1e1e" stroke-width="4" fill="none"></path></g></g><mask></mask><g stroke-linecap="round" transform="translate(265 641.2857142857142) rotate(0 41.5 40)"><path d="M37.31 -0.59 C44.38 -2, 53.42 1.37, 60.14 4.57 C66.85 7.77, 73.72 12.65, 77.59 18.62 C81.46 24.59, 83.8 33.1, 83.36 40.39 C82.92 47.68, 79.05 56.19, 74.93 62.39 C70.81 68.6, 65.23 74.64, 58.64 77.61 C52.06 80.59, 42.97 81.56, 35.43 80.22 C27.88 78.88, 18.97 74.43, 13.39 69.57 C7.8 64.7, 3.82 58.03, 1.93 51.03 C0.04 44.03, -0.22 34.68, 2.05 27.57 C4.33 20.46, 8.91 12.82, 15.59 8.37 C22.27 3.91, 36.37 1.89, 42.14 0.85 C47.91 -0.2, 50.22 1.68, 50.2 2.11 M32.31 1.45 C39.26 -0.48, 49.52 -1, 56.39 1.65 C63.27 4.31, 69.07 11.42, 73.56 17.41 C78.06 23.39, 82.79 30.55, 83.37 37.56 C83.95 44.56, 80.91 52.91, 77.04 59.41 C73.18 65.91, 66.69 73.33, 60.21 76.53 C53.72 79.72, 45.68 79.4, 38.16 78.59 C30.63 77.78, 21.17 76.04, 15.06 71.65 C8.95 67.26, 3.83 58.98, 1.49 52.26 C-0.85 45.54, -0.85 38.05, 1.04 31.33 C2.92 24.6, 7.63 17.2, 12.79 11.93 C17.95 6.65, 28.81 1.6, 32 -0.3 C35.2 -2.19, 31.88 -0.27, 31.96 0.56" stroke="none" stroke-width="0" fill="#1e1e1e"></path><path d="M49.46 1.82 C56.77 2.78, 65.9 7.07, 71.25 12.1 C76.6 17.14, 79.86 24.95, 81.55 32.02 C83.24 39.08, 83.97 47.93, 81.39 54.5 C78.82 61.06, 72.07 67.1, 66.11 71.41 C60.15 75.72, 53.06 79.74, 45.64 80.36 C38.21 80.97, 28.28 78.68, 21.55 75.1 C14.83 71.52, 8.84 65.31, 5.29 58.88 C1.75 52.46, -0.28 43.78, 0.29 36.55 C0.87 29.31, 4.21 21.25, 8.75 15.49 C13.29 9.74, 19.4 3.89, 27.54 2.02 C35.67 0.15, 51.14 3.38, 57.56 4.26 C63.98 5.14, 66.2 7.02, 66.07 7.32 M50.46 1.2 C57.54 1.95, 65.79 5.74, 70.81 10.6 C75.83 15.45, 78.89 23.35, 80.58 30.33 C82.27 37.31, 83.46 45.35, 80.94 52.48 C78.43 59.6, 71.49 68.49, 65.49 73.09 C59.49 77.69, 52.09 79.47, 44.94 80.08 C37.8 80.7, 29.26 80.23, 22.6 76.76 C15.94 73.3, 8.68 65.77, 4.97 59.27 C1.26 52.77, -0.32 44.73, 0.32 37.78 C0.97 30.83, 4.57 23.29, 8.85 17.57 C13.12 11.85, 19.1 6.17, 25.95 3.47 C32.81 0.76, 46.12 1.66, 49.95 1.35 C53.78 1.04, 48.91 0.94, 48.94 1.61" stroke="#1e1e1e" stroke-width="2" fill="none"></path></g><g stroke-linecap="round" transform="translate(449 347.28571428571416) rotate(0 35.5 35.5)"><path d="M71 35.5 C71 37.35, 70.85 39.23, 70.56 41.05 C70.27 42.88, 69.83 44.71, 69.26 46.47 C68.69 48.23, 67.97 49.97, 67.13 51.62 C66.29 53.27, 65.31 54.87, 64.22 56.37 C63.13 57.86, 61.91 59.29, 60.6 60.6 C59.29 61.91, 57.86 63.13, 56.37 64.22 C54.87 65.31, 53.27 66.29, 51.62 67.13 C49.97 67.97, 48.23 68.69, 46.47 69.26 C44.71 69.83, 42.88 70.27, 41.05 70.56 C39.23 70.85, 37.35 71, 35.5 71 C33.65 71, 31.77 70.85, 29.95 70.56 C28.12 70.27, 26.29 69.83, 24.53 69.26 C22.77 68.69, 21.03 67.97, 19.38 67.13 C17.73 66.29, 16.13 65.31, 14.63 64.22 C13.14 63.13, 11.71 61.91, 10.4 60.6 C9.09 59.29, 7.87 57.86, 6.78 56.37 C5.69 54.87, 4.71 53.27, 3.87 51.62 C3.03 49.97, 2.31 48.23, 1.74 46.47 C1.17 44.71, 0.73 42.88, 0.44 41.05 C0.15 39.23, 0 37.35, 0 35.5 C0 33.65, 0.15 31.77, 0.44 29.95 C0.73 28.12, 1.17 26.29, 1.74 24.53 C2.31 22.77, 3.03 21.03, 3.87 19.38 C4.71 17.73, 5.69 16.13, 6.78 14.63 C7.87 13.14, 9.09 11.71, 10.4 10.4 C11.71 9.09, 13.14 7.87, 14.63 6.78 C16.13 5.69, 17.73 4.71, 19.38 3.87 C21.03 3.03, 22.77 2.31, 24.53 1.74 C26.29 1.17, 28.12 0.73, 29.95 0.44 C31.77 0.15, 33.65 0, 35.5 0 C37.35 0, 39.23 0.15, 41.05 0.44 C42.88 0.73, 44.71 1.17, 46.47 1.74 C48.23 2.31, 49.97 3.03, 51.62 3.87 C53.27 4.71, 54.87 5.69, 56.37 6.78 C57.86 7.87, 59.29 9.09, 60.6 10.4 C61.91 11.71, 63.13 13.14, 64.22 14.63 C65.31 16.13, 66.29 17.73, 67.13 19.38 C67.97 21.03, 68.69 22.77, 69.26 24.53 C69.83 26.29, 70.27 28.12, 70.56 29.95 C70.85 31.77, 70.93 34.57, 71 35.5 C71.07 36.43, 71.07 34.57, 71 35.5" stroke="none" stroke-width="0" fill="#1e1e1e"></path><path d="M71 35.5 C71 37.35, 70.85 39.23, 70.56 41.05 C70.27 42.88, 69.83 44.71, 69.26 46.47 C68.69 48.23, 67.97 49.97, 67.13 51.62 C66.29 53.27, 65.31 54.87, 64.22 56.37 C63.13 57.86, 61.91 59.29, 60.6 60.6 C59.29 61.91, 57.86 63.13, 56.37 64.22 C54.87 65.31, 53.27 66.29, 51.62 67.13 C49.97 67.97, 48.23 68.69, 46.47 69.26 C44.71 69.83, 42.88 70.27, 41.05 70.56 C39.23 70.85, 37.35 71, 35.5 71 C33.65 71, 31.77 70.85, 29.95 70.56 C28.12 70.27, 26.29 69.83, 24.53 69.26 C22.77 68.69, 21.03 67.97, 19.38 67.13 C17.73 66.29, 16.13 65.31, 14.63 64.22 C13.14 63.13, 11.71 61.91, 10.4 60.6 C9.09 59.29, 7.87 57.86, 6.78 56.37 C5.69 54.87, 4.71 53.27, 3.87 51.62 C3.03 49.97, 2.31 48.23, 1.74 46.47 C1.17 44.71, 0.73 42.88, 0.44 41.05 C0.15 39.23, 0 37.35, 0 35.5 C0 33.65, 0.15 31.77, 0.44 29.95 C0.73 28.12, 1.17 26.29, 1.74 24.53 C2.31 22.77, 3.03 21.03, 3.87 19.38 C4.71 17.73, 5.69 16.13, 6.78 14.63 C7.87 13.14, 9.09 11.71, 10.4 10.4 C11.71 9.09, 13.14 7.87, 14.63 6.78 C16.13 5.69, 17.73 4.71, 19.38 3.87 C21.03 3.03, 22.77 2.31, 24.53 1.74 C26.29 1.17, 28.12 0.73, 29.95 0.44 C31.77 0.15, 33.65 0, 35.5 0 C37.35 0, 39.23 0.15, 41.05 0.44 C42.88 0.73, 44.71 1.17, 46.47 1.74 C48.23 2.31, 49.97 3.03, 51.62 3.87 C53.27 4.71, 54.87 5.69, 56.37 6.78 C57.86 7.87, 59.29 9.09, 60.6 10.4 C61.91 11.71, 63.13 13.14, 64.22 14.63 C65.31 16.13, 66.29 17.73, 67.13 19.38 C67.97 21.03, 68.69 22.77, 69.26 24.53 C69.83 26.29, 70.27 28.12, 70.56 29.95 C70.85 31.77, 70.93 34.57, 71 35.5 C71.07 36.43, 71.07 34.57, 71 35.5" stroke="#1e1e1e" stroke-width="2" fill="none"></path></g><g stroke-linecap="round" transform="translate(464 364.28571428571416) rotate(0 20.5 19)"><path d="M41 19 C41 20.1, 40.89 21.22, 40.69 22.3 C40.48 23.38, 40.17 24.46, 39.76 25.5 C39.36 26.53, 38.85 27.55, 38.25 28.5 C37.66 29.45, 36.97 30.37, 36.2 31.21 C35.44 32.06, 34.59 32.85, 33.68 33.55 C32.77 34.26, 31.78 34.9, 30.75 35.45 C29.72 36, 28.63 36.48, 27.51 36.85 C26.4 37.23, 25.23 37.52, 24.06 37.71 C22.89 37.9, 21.69 38, 20.5 38 C19.31 38, 18.11 37.9, 16.94 37.71 C15.77 37.52, 14.6 37.23, 13.49 36.85 C12.37 36.48, 11.28 36, 10.25 35.45 C9.22 34.9, 8.23 34.26, 7.32 33.55 C6.41 32.85, 5.56 32.06, 4.8 31.21 C4.03 30.37, 3.34 29.45, 2.75 28.5 C2.15 27.55, 1.64 26.53, 1.24 25.5 C0.83 24.46, 0.52 23.38, 0.31 22.3 C0.11 21.22, 0 20.1, 0 19 C0 17.9, 0.11 16.78, 0.31 15.7 C0.52 14.62, 0.83 13.54, 1.24 12.5 C1.64 11.47, 2.15 10.45, 2.75 9.5 C3.34 8.55, 4.03 7.63, 4.8 6.79 C5.56 5.94, 6.41 5.15, 7.32 4.45 C8.23 3.74, 9.22 3.1, 10.25 2.55 C11.28 2, 12.37 1.52, 13.49 1.15 C14.6 0.77, 15.77 0.48, 16.94 0.29 C18.11 0.1, 19.31 0, 20.5 0 C21.69 0, 22.89 0.1, 24.06 0.29 C25.23 0.48, 26.4 0.77, 27.51 1.15 C28.63 1.52, 29.72 2, 30.75 2.55 C31.78 3.1, 32.77 3.74, 33.68 4.45 C34.59 5.15, 35.44 5.94, 36.2 6.79 C36.97 7.63, 37.66 8.55, 38.25 9.5 C38.85 10.45, 39.36 11.47, 39.76 12.5 C40.17 13.54, 40.48 14.62, 40.69 15.7 C40.89 16.78, 40.95 18.45, 41 19 C41.05 19.55, 41.05 18.45, 41 19" stroke="none" stroke-width="0" fill="#ffffff"></path><path d="M41 19 C41 20.1, 40.89 21.22, 40.69 22.3 C40.48 23.38, 40.17 24.46, 39.76 25.5 C39.36 26.53, 38.85 27.55, 38.25 28.5 C37.66 29.45, 36.97 30.37, 36.2 31.21 C35.44 32.06, 34.59 32.85, 33.68 33.55 C32.77 34.26, 31.78 34.9, 30.75 35.45 C29.72 36, 28.63 36.48, 27.51 36.85 C26.4 37.23, 25.23 37.52, 24.06 37.71 C22.89 37.9, 21.69 38, 20.5 38 C19.31 38, 18.11 37.9, 16.94 37.71 C15.77 37.52, 14.6 37.23, 13.49 36.85 C12.37 36.48, 11.28 36, 10.25 35.45 C9.22 34.9, 8.23 34.26, 7.32 33.55 C6.41 32.85, 5.56 32.06, 4.8 31.21 C4.03 30.37, 3.34 29.45, 2.75 28.5 C2.15 27.55, 1.64 26.53, 1.24 25.5 C0.83 24.46, 0.52 23.38, 0.31 22.3 C0.11 21.22, 0 20.1, 0 19 C0 17.9, 0.11 16.78, 0.31 15.7 C0.52 14.62, 0.83 13.54, 1.24 12.5 C1.64 11.47, 2.15 10.45, 2.75 9.5 C3.34 8.55, 4.03 7.63, 4.8 6.79 C5.56 5.94, 6.41 5.15, 7.32 4.45 C8.23 3.74, 9.22 3.1, 10.25 2.55 C11.28 2, 12.37 1.52, 13.49 1.15 C14.6 0.77, 15.77 0.48, 16.94 0.29 C18.11 0.1, 19.31 0, 20.5 0 C21.69 0, 22.89 0.1, 24.06 0.29 C25.23 0.48, 26.4 0.77, 27.51 1.15 C28.63 1.52, 29.72 2, 30.75 2.55 C31.78 3.1, 32.77 3.74, 33.68 4.45 C34.59 5.15, 35.44 5.94, 36.2 6.79 C36.97 7.63, 37.66 8.55, 38.25 9.5 C38.85 10.45, 39.36 11.47, 39.76 12.5 C40.17 13.54, 40.48 14.62, 40.69 15.7 C40.89 16.78, 40.95 18.45, 41 19 C41.05 19.55, 41.05 18.45, 41 19" stroke="#1e1e1e" stroke-width="2" fill="none"></path></g><g stroke-linecap="round" transform="translate(238.5 513.7857142857142) rotate(317.5857943424245 239 12.5)"><path d="M350.99 2.94 C372.46 3.15, 394.09 2.74, 410.54 3.52 C427 4.29, 439.13 6.22, 449.73 7.57 C460.34 8.91, 469.61 10.28, 474.16 11.59 C478.71 12.89, 479.77 14.36, 477.03 15.41 C474.29 16.45, 467.19 17.03, 457.71 17.86 C448.22 18.7, 435.9 19.59, 420.09 20.42 C404.29 21.26, 383.29 22.45, 362.88 22.87 C342.46 23.29, 320.31 22.76, 297.59 22.94 C274.87 23.13, 250.03 24.04, 226.55 23.96 C203.08 23.88, 178.24 22.49, 156.74 22.48 C135.25 22.47, 115.91 24.64, 97.6 23.92 C79.28 23.21, 61.05 19.63, 46.85 18.19 C32.65 16.75, 20.48 16.16, 12.39 15.27 C4.29 14.38, -0.8 14.07, -1.74 12.84 C-2.67 11.61, 0.36 9.32, 6.79 7.89 C13.21 6.47, 23.58 4.87, 36.82 4.28 C50.05 3.69, 67.93 4.98, 86.17 4.37 C104.42 3.75, 125.17 1.47, 146.29 0.58 C167.41 -0.31, 189.79 -0.72, 212.9 -0.95 C236.01 -1.19, 252.39 -1.57, 284.95 -0.81 C317.5 -0.06, 381.07 2.51, 408.23 3.55 C435.38 4.6, 450.38 5.18, 447.86 5.45 M133.28 3.11 C152.17 2.2, 177.75 -0.74, 200.61 -1.62 C223.47 -2.51, 247.57 -2.52, 270.45 -2.21 C293.32 -1.89, 317.07 -0.79, 337.86 0.27 C358.64 1.32, 377.48 3.39, 395.16 4.12 C412.83 4.85, 431.3 3.72, 443.91 4.66 C456.52 5.6, 465.22 8.3, 470.82 9.77 C476.42 11.24, 478.94 12.19, 477.52 13.48 C476.09 14.78, 469.95 16.95, 462.26 17.55 C454.56 18.15, 444.97 16.32, 431.36 17.07 C417.75 17.83, 400.43 20.74, 380.58 22.07 C360.73 23.41, 334.62 24.97, 312.24 25.08 C289.85 25.19, 269.78 22.69, 246.28 22.72 C222.77 22.76, 194.08 25.02, 171.19 25.29 C148.29 25.56, 128.49 25.18, 108.9 24.32 C89.32 23.46, 68.66 20.95, 53.67 20.13 C38.68 19.31, 27.82 20.31, 18.96 19.4 C10.1 18.5, 2.77 15.93, 0.53 14.7 C-1.71 13.47, 0.97 13.74, 5.51 12.01 C10.05 10.27, 16.79 5.46, 27.75 4.29 C38.71 3.11, 53.92 5.1, 71.27 4.98 C88.63 4.85, 121.83 4.3, 131.88 3.55 C141.93 2.8, 129.96 1.04, 131.55 0.45" stroke="none" stroke-width="0" fill="#1e1e1e"></path><path d="M437.73 7.14 C453 8.04, 460.39 9.12, 467.17 10.06 C473.94 11.01, 478.84 11.99, 478.4 12.8 C477.97 13.61, 471.78 13.91, 464.55 14.92 C457.33 15.93, 448.16 17.75, 435.05 18.88 C421.94 20.01, 404.77 21.09, 385.9 21.7 C367.04 22.31, 344.45 21.76, 321.85 22.56 C299.25 23.37, 274.07 26.26, 250.32 26.52 C226.56 26.77, 201.82 24.68, 179.31 24.08 C156.8 23.47, 135.01 23.67, 115.25 22.87 C95.49 22.07, 76.55 20.08, 60.77 19.26 C44.98 18.45, 30.13 18.57, 20.56 17.96 C11 17.35, 6.13 17.2, 3.37 15.62 C0.61 14.04, 0.3 9.75, 4 8.46 C7.7 7.16, 15.25 8.6, 25.56 7.83 C35.87 7.06, 49.47 4.99, 65.86 3.85 C82.26 2.7, 103.13 1.34, 123.95 0.96 C144.78 0.58, 168.11 1.45, 190.82 1.56 C213.54 1.66, 236.77 1.49, 260.23 1.58 C283.69 1.68, 309.48 2.22, 331.6 2.15 C353.72 2.07, 371.12 0.3, 392.95 1.14 C414.78 1.99, 449.46 5.86, 462.58 7.21 C475.7 8.56, 475.31 9.19, 471.67 9.24 M173.45 -2.39 C193.81 -2.79, 216.87 0.76, 240.19 1.04 C263.52 1.33, 291.08 -0.45, 313.43 -0.67 C335.78 -0.88, 354.73 -0.99, 374.27 -0.26 C393.81 0.46, 415.83 1.92, 430.69 3.69 C445.55 5.45, 455.23 8.59, 463.43 10.35 C471.64 12.11, 478.51 13.51, 479.91 14.25 C481.32 14.99, 477.7 13.85, 471.87 14.79 C466.04 15.73, 456.92 19.1, 444.95 19.91 C432.99 20.72, 417.8 18.67, 400.09 19.64 C382.39 20.6, 360.77 24.45, 338.74 25.69 C316.71 26.93, 291.17 27.41, 267.92 27.06 C244.67 26.71, 222.27 24.18, 199.24 23.6 C176.21 23.02, 151.15 23.63, 129.74 23.57 C108.33 23.51, 87.58 24.43, 70.79 23.24 C54 22.04, 39.94 17.61, 29.01 16.39 C18.08 15.17, 10.13 17.1, 5.22 15.92 C0.31 14.74, -2.36 10.27, -0.46 9.32 C1.45 8.38, 7.72 11.47, 16.66 10.27 C25.6 9.06, 37.75 3.58, 53.18 2.1 C68.61 0.63, 89.74 1.51, 109.26 1.42 C128.78 1.33, 159.59 1.64, 170.3 1.56 C181.01 1.47, 172.21 0.53, 173.51 0.91" stroke="#1e1e1e" stroke-width="2" fill="none"></path></g><g stroke-linecap="round" transform="translate(823 28.285714285714164) rotate(0 55.5 55.5)"><path d="M111 55.5 C111 57.91, 110.84 60.35, 110.53 62.74 C110.21 65.14, 109.73 67.53, 109.11 69.86 C108.48 72.2, 107.7 74.51, 106.78 76.74 C105.85 78.97, 104.77 81.16, 103.56 83.25 C102.36 85.34, 101 87.37, 99.53 89.29 C98.06 91.2, 96.45 93.04, 94.74 94.74 C93.04 96.45, 91.2 98.06, 89.29 99.53 C87.37 101, 85.34 102.36, 83.25 103.56 C81.16 104.77, 78.97 105.85, 76.74 106.78 C74.51 107.7, 72.2 108.48, 69.86 109.11 C67.53 109.73, 65.14 110.21, 62.74 110.53 C60.35 110.84, 57.91 111, 55.5 111 C53.09 111, 50.65 110.84, 48.26 110.53 C45.86 110.21, 43.47 109.73, 41.14 109.11 C38.8 108.48, 36.49 107.7, 34.26 106.78 C32.03 105.85, 29.84 104.77, 27.75 103.56 C25.66 102.36, 23.63 101, 21.71 99.53 C19.8 98.06, 17.96 96.45, 16.26 94.74 C14.55 93.04, 12.94 91.2, 11.47 89.29 C10 87.37, 8.64 85.34, 7.44 83.25 C6.23 81.16, 5.15 78.97, 4.22 76.74 C3.3 74.51, 2.52 72.2, 1.89 69.86 C1.27 67.53, 0.79 65.14, 0.47 62.74 C0.16 60.35, 0 57.91, 0 55.5 C0 53.09, 0.16 50.65, 0.47 48.26 C0.79 45.86, 1.27 43.47, 1.89 41.14 C2.52 38.8, 3.3 36.49, 4.22 34.26 C5.15 32.03, 6.23 29.84, 7.44 27.75 C8.64 25.66, 10 23.63, 11.47 21.71 C12.94 19.8, 14.55 17.96, 16.26 16.26 C17.96 14.55, 19.8 12.94, 21.71 11.47 C23.63 10, 25.66 8.64, 27.75 7.44 C29.84 6.23, 32.03 5.15, 34.26 4.22 C36.49 3.3, 38.8 2.52, 41.14 1.89 C43.47 1.27, 45.86 0.79, 48.26 0.47 C50.65 0.16, 53.09 0, 55.5 0 C57.91 0, 60.35 0.16, 62.74 0.47 C65.14 0.79, 67.53 1.27, 69.86 1.89 C72.2 2.52, 74.51 3.3, 76.74 4.22 C78.97 5.15, 81.16 6.23, 83.25 7.44 C85.34 8.64, 87.37 10, 89.29 11.47 C91.2 12.94, 93.04 14.55, 94.74 16.26 C96.45 17.96, 98.06 19.8, 99.53 21.71 C101 23.63, 102.36 25.66, 103.56 27.75 C104.77 29.84, 105.85 32.03, 106.78 34.26 C107.7 36.49, 108.48 38.8, 109.11 41.14 C109.73 43.47, 110.21 45.86, 110.53 48.26 C110.84 50.65, 110.92 54.29, 111 55.5 C111.08 56.71, 111.08 54.29, 111 55.5" stroke="none" stroke-width="0" fill="#1e1e1e"></path><path d="M111 55.5 C111 57.91, 110.84 60.35, 110.53 62.74 C110.21 65.14, 109.73 67.53, 109.11 69.86 C108.48 72.2, 107.7 74.51, 106.78 76.74 C105.85 78.97, 104.77 81.16, 103.56 83.25 C102.36 85.34, 101 87.37, 99.53 89.29 C98.06 91.2, 96.45 93.04, 94.74 94.74 C93.04 96.45, 91.2 98.06, 89.29 99.53 C87.37 101, 85.34 102.36, 83.25 103.56 C81.16 104.77, 78.97 105.85, 76.74 106.78 C74.51 107.7, 72.2 108.48, 69.86 109.11 C67.53 109.73, 65.14 110.21, 62.74 110.53 C60.35 110.84, 57.91 111, 55.5 111 C53.09 111, 50.65 110.84, 48.26 110.53 C45.86 110.21, 43.47 109.73, 41.14 109.11 C38.8 108.48, 36.49 107.7, 34.26 106.78 C32.03 105.85, 29.84 104.77, 27.75 103.56 C25.66 102.36, 23.63 101, 21.71 99.53 C19.8 98.06, 17.96 96.45, 16.26 94.74 C14.55 93.04, 12.94 91.2, 11.47 89.29 C10 87.37, 8.64 85.34, 7.44 83.25 C6.23 81.16, 5.15 78.97, 4.22 76.74 C3.3 74.51, 2.52 72.2, 1.89 69.86 C1.27 67.53, 0.79 65.14, 0.47 62.74 C0.16 60.35, 0 57.91, 0 55.5 C0 53.09, 0.16 50.65, 0.47 48.26 C0.79 45.86, 1.27 43.47, 1.89 41.14 C2.52 38.8, 3.3 36.49, 4.22 34.26 C5.15 32.03, 6.23 29.84, 7.44 27.75 C8.64 25.66, 10 23.63, 11.47 21.71 C12.94 19.8, 14.55 17.96, 16.26 16.26 C17.96 14.55, 19.8 12.94, 21.71 11.47 C23.63 10, 25.66 8.64, 27.75 7.44 C29.84 6.23, 32.03 5.15, 34.26 4.22 C36.49 3.3, 38.8 2.52, 41.14 1.89 C43.47 1.27, 45.86 0.79, 48.26 0.47 C50.65 0.16, 53.09 0, 55.5 0 C57.91 0, 60.35 0.16, 62.74 0.47 C65.14 0.79, 67.53 1.27, 69.86 1.89 C72.2 2.52, 74.51 3.3, 76.74 4.22 C78.97 5.15, 81.16 6.23, 83.25 7.44 C85.34 8.64, 87.37 10, 89.29 11.47 C91.2 12.94, 93.04 14.55, 94.74 16.26 C96.45 17.96, 98.06 19.8, 99.53 21.71 C101 23.63, 102.36 25.66, 103.56 27.75 C104.77 29.84, 105.85 32.03, 106.78 34.26 C107.7 36.49, 108.48 38.8, 109.11 41.14 C109.73 43.47, 110.21 45.86, 110.53 48.26 C110.84 50.65, 110.92 54.29, 111 55.5 C111.08 56.71, 111.08 54.29, 111 55.5" stroke="#1e1e1e" stroke-width="2" fill="none"></path></g><g stroke-linecap="round"><g transform="translate(370.7189085605794 693.2427260867519) rotate(0 179.25941762431876 79.96257736476286)"><path d="M0 0 C59.75 26.65, 298.77 133.27, 358.52 159.93 M0 0 C59.75 26.65, 298.77 133.27, 358.52 159.93" stroke="#1e1e1e" stroke-width="4" fill="none"></path></g><g transform="translate(370.7189085605794 693.2427260867519) rotate(0 179.25941762431876 79.96257736476286)"><path d="M333.58 158.16 C339.77 158.6, 345.95 159.04, 358.52 159.93 M333.58 158.16 C339.07 158.55, 344.56 158.94, 358.52 159.93" stroke="#1e1e1e" stroke-width="4" fill="none"></path></g><g transform="translate(370.7189085605794 693.2427260867519) rotate(0 179.25941762431876 79.96257736476286)"><path d="M340.55 142.55 C345 146.86, 349.46 151.17, 358.52 159.93 M340.55 142.55 C344.5 146.37, 348.46 150.2, 358.52 159.93" stroke="#1e1e1e" stroke-width="4" fill="none"></path></g></g><mask></mask><g stroke-linecap="round" transform="translate(46.85714285714289 10) rotate(0 55.5 55.5)"><path d="M111 55.5 C111 57.91, 110.84 60.35, 110.53 62.74 C110.21 65.14, 109.73 67.53, 109.11 69.86 C108.48 72.2, 107.7 74.51, 106.78 76.74 C105.85 78.97, 104.77 81.16, 103.56 83.25 C102.36 85.34, 101 87.37, 99.53 89.29 C98.06 91.2, 96.45 93.04, 94.74 94.74 C93.04 96.45, 91.2 98.06, 89.29 99.53 C87.37 101, 85.34 102.36, 83.25 103.56 C81.16 104.77, 78.97 105.85, 76.74 106.78 C74.51 107.7, 72.2 108.48, 69.86 109.11 C67.53 109.73, 65.14 110.21, 62.74 110.53 C60.35 110.84, 57.91 111, 55.5 111 C53.09 111, 50.65 110.84, 48.26 110.53 C45.86 110.21, 43.47 109.73, 41.14 109.11 C38.8 108.48, 36.49 107.7, 34.26 106.78 C32.03 105.85, 29.84 104.77, 27.75 103.56 C25.66 102.36, 23.63 101, 21.71 99.53 C19.8 98.06, 17.96 96.45, 16.26 94.74 C14.55 93.04, 12.94 91.2, 11.47 89.29 C10 87.37, 8.64 85.34, 7.44 83.25 C6.23 81.16, 5.15 78.97, 4.22 76.74 C3.3 74.51, 2.52 72.2, 1.89 69.86 C1.27 67.53, 0.79 65.14, 0.47 62.74 C0.16 60.35, 0 57.91, 0 55.5 C0 53.09, 0.16 50.65, 0.47 48.26 C0.79 45.86, 1.27 43.47, 1.89 41.14 C2.52 38.8, 3.3 36.49, 4.22 34.26 C5.15 32.03, 6.23 29.84, 7.44 27.75 C8.64 25.66, 10 23.63, 11.47 21.71 C12.94 19.8, 14.55 17.96, 16.26 16.26 C17.96 14.55, 19.8 12.94, 21.71 11.47 C23.63 10, 25.66 8.64, 27.75 7.44 C29.84 6.23, 32.03 5.15, 34.26 4.22 C36.49 3.3, 38.8 2.52, 41.14 1.89 C43.47 1.27, 45.86 0.79, 48.26 0.47 C50.65 0.16, 53.09 0, 55.5 0 C57.91 0, 60.35 0.16, 62.74 0.47 C65.14 0.79, 67.53 1.27, 69.86 1.89 C72.2 2.52, 74.51 3.3, 76.74 4.22 C78.97 5.15, 81.16 6.23, 83.25 7.44 C85.34 8.64, 87.37 10, 89.29 11.47 C91.2 12.94, 93.04 14.55, 94.74 16.26 C96.45 17.96, 98.06 19.8, 99.53 21.71 C101 23.63, 102.36 25.66, 103.56 27.75 C104.77 29.84, 105.85 32.03, 106.78 34.26 C107.7 36.49, 108.48 38.8, 109.11 41.14 C109.73 43.47, 110.21 45.86, 110.53 48.26 C110.84 50.65, 110.92 54.29, 111 55.5 C111.08 56.71, 111.08 54.29, 111 55.5" stroke="none" stroke-width="0" fill="#1e1e1e"></path><path d="M111 55.5 C111 57.91, 110.84 60.35, 110.53 62.74 C110.21 65.14, 109.73 67.53, 109.11 69.86 C108.48 72.2, 107.7 74.51, 106.78 76.74 C105.85 78.97, 104.77 81.16, 103.56 83.25 C102.36 85.34, 101 87.37, 99.53 89.29 C98.06 91.2, 96.45 93.04, 94.74 94.74 C93.04 96.45, 91.2 98.06, 89.29 99.53 C87.37 101, 85.34 102.36, 83.25 103.56 C81.16 104.77, 78.97 105.85, 76.74 106.78 C74.51 107.7, 72.2 108.48, 69.86 109.11 C67.53 109.73, 65.14 110.21, 62.74 110.53 C60.35 110.84, 57.91 111, 55.5 111 C53.09 111, 50.65 110.84, 48.26 110.53 C45.86 110.21, 43.47 109.73, 41.14 109.11 C38.8 108.48, 36.49 107.7, 34.26 106.78 C32.03 105.85, 29.84 104.77, 27.75 103.56 C25.66 102.36, 23.63 101, 21.71 99.53 C19.8 98.06, 17.96 96.45, 16.26 94.74 C14.55 93.04, 12.94 91.2, 11.47 89.29 C10 87.37, 8.64 85.34, 7.44 83.25 C6.23 81.16, 5.15 78.97, 4.22 76.74 C3.3 74.51, 2.52 72.2, 1.89 69.86 C1.27 67.53, 0.79 65.14, 0.47 62.74 C0.16 60.35, 0 57.91, 0 55.5 C0 53.09, 0.16 50.65, 0.47 48.26 C0.79 45.86, 1.27 43.47, 1.89 41.14 C2.52 38.8, 3.3 36.49, 4.22 34.26 C5.15 32.03, 6.23 29.84, 7.44 27.75 C8.64 25.66, 10 23.63, 11.47 21.71 C12.94 19.8, 14.55 17.96, 16.26 16.26 C17.96 14.55, 19.8 12.94, 21.71 11.47 C23.63 10, 25.66 8.64, 27.75 7.44 C29.84 6.23, 32.03 5.15, 34.26 4.22 C36.49 3.3, 38.8 2.52, 41.14 1.89 C43.47 1.27, 45.86 0.79, 48.26 0.47 C50.65 0.16, 53.09 0, 55.5 0 C57.91 0, 60.35 0.16, 62.74 0.47 C65.14 0.79, 67.53 1.27, 69.86 1.89 C72.2 2.52, 74.51 3.3, 76.74 4.22 C78.97 5.15, 81.16 6.23, 83.25 7.44 C85.34 8.64, 87.37 10, 89.29 11.47 C91.2 12.94, 93.04 14.55, 94.74 16.26 C96.45 17.96, 98.06 19.8, 99.53 21.71 C101 23.63, 102.36 25.66, 103.56 27.75 C104.77 29.84, 105.85 32.03, 106.78 34.26 C107.7 36.49, 108.48 38.8, 109.11 41.14 C109.73 43.47, 110.21 45.86, 110.53 48.26 C110.84 50.65, 110.92 54.29, 111 55.5 C111.08 56.71, 111.08 54.29, 111 55.5" stroke="#1e1e1e" stroke-width="2" fill="none"></path></g><g stroke-linecap="round"><g transform="translate(167.37554171042098 66.51413436263738) rotate(0 317.2195489618981 1.754621700940703)"><path d="M0 0 C105.74 0.58, 528.7 2.92, 634.44 3.51 M0 0 C105.74 0.58, 528.7 2.92, 634.44 3.51" stroke="#1e1e1e" stroke-width="4" fill="none"></path></g><g transform="translate(167.37554171042098 66.51413436263738) rotate(0 317.2195489618981 1.754621700940703)"><path d="M610.9 11.93 C619.58 8.83, 628.25 5.72, 634.44 3.51 M610.9 11.93 C618.79 9.11, 626.67 6.29, 634.44 3.51" stroke="#1e1e1e" stroke-width="4" fill="none"></path></g><g transform="translate(167.37554171042098 66.51413436263738) rotate(0 317.2195489618981 1.754621700940703)"><path d="M610.99 -5.17 C619.64 -1.97, 628.28 1.23, 634.44 3.51 M610.99 -5.17 C618.85 -2.26, 626.7 0.65, 634.44 3.51" stroke="#1e1e1e" stroke-width="4" fill="none"></path></g></g><mask></mask><g stroke-linecap="round" transform="translate(734 837.1428571428567) rotate(0 55.5 55.5)"><path d="M111 55.5 C111 57.91, 110.84 60.35, 110.53 62.74 C110.21 65.14, 109.73 67.53, 109.11 69.86 C108.48 72.2, 107.7 74.51, 106.78 76.74 C105.85 78.97, 104.77 81.16, 103.56 83.25 C102.36 85.34, 101 87.37, 99.53 89.29 C98.06 91.2, 96.45 93.04, 94.74 94.74 C93.04 96.45, 91.2 98.06, 89.29 99.53 C87.37 101, 85.34 102.36, 83.25 103.56 C81.16 104.77, 78.97 105.85, 76.74 106.78 C74.51 107.7, 72.2 108.48, 69.86 109.11 C67.53 109.73, 65.14 110.21, 62.74 110.53 C60.35 110.84, 57.91 111, 55.5 111 C53.09 111, 50.65 110.84, 48.26 110.53 C45.86 110.21, 43.47 109.73, 41.14 109.11 C38.8 108.48, 36.49 107.7, 34.26 106.78 C32.03 105.85, 29.84 104.77, 27.75 103.56 C25.66 102.36, 23.63 101, 21.71 99.53 C19.8 98.06, 17.96 96.45, 16.26 94.74 C14.55 93.04, 12.94 91.2, 11.47 89.29 C10 87.37, 8.64 85.34, 7.44 83.25 C6.23 81.16, 5.15 78.97, 4.22 76.74 C3.3 74.51, 2.52 72.2, 1.89 69.86 C1.27 67.53, 0.79 65.14, 0.47 62.74 C0.16 60.35, 0 57.91, 0 55.5 C0 53.09, 0.16 50.65, 0.47 48.26 C0.79 45.86, 1.27 43.47, 1.89 41.14 C2.52 38.8, 3.3 36.49, 4.22 34.26 C5.15 32.03, 6.23 29.84, 7.44 27.75 C8.64 25.66, 10 23.63, 11.47 21.71 C12.94 19.8, 14.55 17.96, 16.26 16.26 C17.96 14.55, 19.8 12.94, 21.71 11.47 C23.63 10, 25.66 8.64, 27.75 7.44 C29.84 6.23, 32.03 5.15, 34.26 4.22 C36.49 3.3, 38.8 2.52, 41.14 1.89 C43.47 1.27, 45.86 0.79, 48.26 0.47 C50.65 0.16, 53.09 0, 55.5 0 C57.91 0, 60.35 0.16, 62.74 0.47 C65.14 0.79, 67.53 1.27, 69.86 1.89 C72.2 2.52, 74.51 3.3, 76.74 4.22 C78.97 5.15, 81.16 6.23, 83.25 7.44 C85.34 8.64, 87.37 10, 89.29 11.47 C91.2 12.94, 93.04 14.55, 94.74 16.26 C96.45 17.96, 98.06 19.8, 99.53 21.71 C101 23.63, 102.36 25.66, 103.56 27.75 C104.77 29.84, 105.85 32.03, 106.78 34.26 C107.7 36.49, 108.48 38.8, 109.11 41.14 C109.73 43.47, 110.21 45.86, 110.53 48.26 C110.84 50.65, 110.92 54.29, 111 55.5 C111.08 56.71, 111.08 54.29, 111 55.5" stroke="none" stroke-width="0" fill="#1e1e1e"></path><path d="M111 55.5 C111 57.91, 110.84 60.35, 110.53 62.74 C110.21 65.14, 109.73 67.53, 109.11 69.86 C108.48 72.2, 107.7 74.51, 106.78 76.74 C105.85 78.97, 104.77 81.16, 103.56 83.25 C102.36 85.34, 101 87.37, 99.53 89.29 C98.06 91.2, 96.45 93.04, 94.74 94.74 C93.04 96.45, 91.2 98.06, 89.29 99.53 C87.37 101, 85.34 102.36, 83.25 103.56 C81.16 104.77, 78.97 105.85, 76.74 106.78 C74.51 107.7, 72.2 108.48, 69.86 109.11 C67.53 109.73, 65.14 110.21, 62.74 110.53 C60.35 110.84, 57.91 111, 55.5 111 C53.09 111, 50.65 110.84, 48.26 110.53 C45.86 110.21, 43.47 109.73, 41.14 109.11 C38.8 108.48, 36.49 107.7, 34.26 106.78 C32.03 105.85, 29.84 104.77, 27.75 103.56 C25.66 102.36, 23.63 101, 21.71 99.53 C19.8 98.06, 17.96 96.45, 16.26 94.74 C14.55 93.04, 12.94 91.2, 11.47 89.29 C10 87.37, 8.64 85.34, 7.44 83.25 C6.23 81.16, 5.15 78.97, 4.22 76.74 C3.3 74.51, 2.52 72.2, 1.89 69.86 C1.27 67.53, 0.79 65.14, 0.47 62.74 C0.16 60.35, 0 57.91, 0 55.5 C0 53.09, 0.16 50.65, 0.47 48.26 C0.79 45.86, 1.27 43.47, 1.89 41.14 C2.52 38.8, 3.3 36.49, 4.22 34.26 C5.15 32.03, 6.23 29.84, 7.44 27.75 C8.64 25.66, 10 23.63, 11.47 21.71 C12.94 19.8, 14.55 17.96, 16.26 16.26 C17.96 14.55, 19.8 12.94, 21.71 11.47 C23.63 10, 25.66 8.64, 27.75 7.44 C29.84 6.23, 32.03 5.15, 34.26 4.22 C36.49 3.3, 38.8 2.52, 41.14 1.89 C43.47 1.27, 45.86 0.79, 48.26 0.47 C50.65 0.16, 53.09 0, 55.5 0 C57.91 0, 60.35 0.16, 62.74 0.47 C65.14 0.79, 67.53 1.27, 69.86 1.89 C72.2 2.52, 74.51 3.3, 76.74 4.22 C78.97 5.15, 81.16 6.23, 83.25 7.44 C85.34 8.64, 87.37 10, 89.29 11.47 C91.2 12.94, 93.04 14.55, 94.74 16.26 C96.45 17.96, 98.06 19.8, 99.53 21.71 C101 23.63, 102.36 25.66, 103.56 27.75 C104.77 29.84, 105.85 32.03, 106.78 34.26 C107.7 36.49, 108.48 38.8, 109.11 41.14 C109.73 43.47, 110.21 45.86, 110.53 48.26 C110.84 50.65, 110.92 54.29, 111 55.5 C111.08 56.71, 111.08 54.29, 111 55.5" stroke="#1e1e1e" stroke-width="2" fill="none"></path></g><g stroke-linecap="round"><g transform="translate(790.5875161479016 825.2454221219036) rotate(0 43.00507524474904 -333.3337444087596)"><path d="M0 0 C14.34 -111.11, 71.68 -555.56, 86.01 -666.67 M0 0 C14.34 -111.11, 71.68 -555.56, 86.01 -666.67" stroke="#1e1e1e" stroke-width="4" fill="none"></path></g><g transform="translate(790.5875161479016 825.2454221219036) rotate(0 43.00507524474904 -333.3337444087596)"><path d="M91.48 -642.27 C90.35 -647.35, 89.21 -652.42, 86.01 -666.67 M91.48 -642.27 C90.13 -648.31, 88.78 -654.35, 86.01 -666.67" stroke="#1e1e1e" stroke-width="4" fill="none"></path></g><g transform="translate(790.5875161479016 825.2454221219036) rotate(0 43.00507524474904 -333.3337444087596)"><path d="M74.52 -644.46 C76.91 -649.08, 79.3 -653.7, 86.01 -666.67 M74.52 -644.46 C77.37 -649.96, 80.21 -655.45, 86.01 -666.67" stroke="#1e1e1e" stroke-width="4" fill="none"></path></g></g><mask></mask><g stroke-linecap="round" transform="translate(253.5 629.7857142857142) rotate(0 53.5 53.5)"><path d="M54.28 -0.66 C63.03 -1.33, 74.73 3.04, 82.46 7.72 C90.19 12.41, 96.73 19.65, 100.66 27.47 C104.59 35.29, 106.46 45.56, 106.04 54.64 C105.61 63.73, 102.82 74.21, 98.12 81.98 C93.41 89.75, 85.59 96.98, 77.8 101.26 C70.01 105.54, 60.07 107.95, 51.36 107.65 C42.66 107.36, 33.08 104.24, 25.57 99.51 C18.06 94.77, 10.69 87.29, 6.29 79.25 C1.89 71.21, -1.25 60.33, -0.83 51.25 C-0.41 42.17, 3.85 32.23, 8.81 24.79 C13.77 17.35, 20.82 10.82, 28.91 6.6 C36.99 2.37, 52.2 0.2, 57.32 -0.56 C62.44 -1.32, 59.7 1.17, 59.62 2.05 M43.22 2.18 C51.35 -0.49, 60.58 -0.76, 68.95 1.79 C77.32 4.34, 87.08 10.88, 93.44 17.46 C99.79 24.05, 105.09 32.61, 107.08 41.31 C109.06 50.01, 108.14 60.94, 105.36 69.69 C102.59 78.44, 97.05 87.83, 90.43 93.82 C83.8 99.81, 74.33 104.05, 65.59 105.6 C56.84 107.16, 46.51 105.83, 37.95 103.15 C29.4 100.47, 20.15 95.96, 14.26 89.51 C8.37 83.06, 4.59 73.33, 2.6 64.44 C0.62 55.54, -0.37 44.48, 2.36 36.12 C5.1 27.77, 12.1 20.3, 19 14.29 C25.91 8.28, 39.78 1.99, 43.81 0.05 C47.84 -1.88, 43.41 1.66, 43.2 2.69" stroke="#1e1e1e" stroke-width="2" fill="none"></path></g><g stroke-linecap="round" transform="translate(273 651.7857142857142) rotate(0 32 31.5)"><path d="M18.12 2.51 C23.93 -0.33, 33.67 -0.01, 40.25 1.84 C46.84 3.68, 53.58 8.26, 57.63 13.6 C61.68 18.93, 64.93 27.15, 64.57 33.83 C64.21 40.52, 60.45 48.94, 55.45 53.71 C50.45 58.49, 41.36 61.73, 34.57 62.48 C27.77 63.24, 20.23 61.93, 14.67 58.24 C9.12 54.54, 3.29 46.93, 1.24 40.34 C-0.81 33.75, -1.05 25.24, 2.36 18.71 C5.78 12.17, 18.03 3.94, 21.71 1.11 C25.4 -1.72, 24.21 1.12, 24.49 1.73 M34.93 -0.05 C41.19 0.5, 49.45 4.7, 54.31 9.85 C59.16 15.01, 63.48 24.34, 64.05 30.9 C64.62 37.46, 61.72 43.86, 57.75 49.19 C53.77 54.52, 46.88 61, 40.18 62.88 C33.49 64.76, 23.74 63.92, 17.56 60.5 C11.38 57.08, 5.87 48.98, 3.1 42.35 C0.33 35.73, -1.13 26.91, 0.96 20.74 C3.05 14.58, 9.57 8.92, 15.65 5.34 C21.74 1.77, 34.15 -0.14, 37.48 -0.69 C40.8 -1.23, 35.9 1.62, 35.61 2.07" stroke="none" stroke-width="0" fill="#ffffff"></path><path d="M39.31 0.87 C45.92 1.84, 54.06 6.73, 58.27 12.29 C62.48 17.84, 65.22 27.36, 64.58 34.17 C63.94 40.98, 59.25 48.32, 54.41 53.14 C49.58 57.95, 42.29 62.27, 35.56 63.06 C28.84 63.85, 19.92 61.7, 14.08 57.86 C8.25 54.02, 2.56 46.33, 0.56 40.03 C-1.45 33.72, -0.83 26.2, 2.02 20 C4.87 13.8, 10.7 5.63, 17.66 2.8 C24.62 -0.03, 38.99 2.61, 43.78 3.03 C48.58 3.45, 46.54 4.87, 46.45 5.32 M29.26 0.27 C35.6 -0.9, 44.68 1.4, 50.05 5.35 C55.42 9.31, 59.8 17.21, 61.48 24.01 C63.16 30.81, 63.01 40.04, 60.13 46.15 C57.24 52.27, 50.42 58.21, 44.16 60.68 C37.9 63.16, 28.87 62.92, 22.57 61.02 C16.28 59.12, 9.89 54.7, 6.4 49.27 C2.91 43.84, 1.2 35.05, 1.62 28.43 C2.03 21.81, 4.33 14.45, 8.89 9.53 C13.46 4.61, 25.57 0.21, 29.01 -1.11 C32.45 -2.43, 29.24 0.67, 29.54 1.63" stroke="#1e1e1e" stroke-width="2" fill="none"></path></g><g stroke-linecap="round" transform="translate(836.6428571428573 39.785714285714164) rotate(0 42.85714285714289 43.571428571428584)"><path d="M41.01 0.64 C48.09 -0.46, 57.49 0.75, 64.36 4.97 C71.24 9.19, 79 18.75, 82.25 25.96 C85.5 33.17, 84.88 40.52, 83.88 48.23 C82.87 55.95, 80.86 66.43, 76.22 72.24 C71.58 78.04, 63.32 80.59, 56.05 83.08 C48.79 85.57, 39.75 89.01, 32.64 87.17 C25.53 85.33, 18.66 77.78, 13.38 72.03 C8.11 66.29, 2.71 60.57, 0.98 52.73 C-0.75 44.89, 0.1 32.21, 2.99 24.98 C5.88 17.75, 11.4 13.66, 18.34 9.36 C25.28 5.05, 39.41 0.74, 44.61 -0.84 C49.81 -2.41, 49.33 -0.9, 49.56 -0.1 M78.98 19.64 C83.74 26.09, 84.9 37.9, 84.98 45.86 C85.06 53.82, 83.19 61.34, 79.45 67.4 C75.72 73.46, 70.09 79.38, 62.57 82.21 C55.04 85.05, 42.37 85.22, 34.3 84.41 C26.22 83.6, 19.8 82.18, 14.13 77.36 C8.45 72.53, 2.45 62.92, 0.23 55.48 C-1.99 48.03, -1.21 40.31, 0.79 32.69 C2.8 25.06, 6.58 14.98, 12.26 9.72 C17.94 4.47, 26.99 2.33, 34.86 1.15 C42.73 -0.02, 52.06 -0.38, 59.5 2.69 C66.94 5.77, 76.6 16.81, 79.51 19.6 C82.42 22.39, 77.79 19.12, 76.96 19.44" stroke="none" stroke-width="0" fill="#ffffff"></path><path d="M18.38 10.46 C24.13 5.41, 33.19 -0.72, 40.85 -1.58 C48.51 -2.45, 57.59 1.65, 64.36 5.29 C71.13 8.93, 78.09 13.4, 81.45 20.26 C84.82 27.12, 84.9 38.33, 84.54 46.44 C84.19 54.55, 83.92 62.73, 79.32 68.92 C74.71 75.11, 64.67 80.76, 56.91 83.57 C49.14 86.38, 40.18 87.31, 32.72 85.76 C25.25 84.2, 17.63 79.57, 12.12 74.23 C6.62 68.9, 1.6 61.4, -0.32 53.73 C-2.25 46.06, -5.09 37.06, 0.58 28.2 C6.24 19.34, 24.68 5, 33.66 0.55 C42.63 -3.89, 54.35 0.88, 54.44 1.55 M37.8 -0.22 C45.71 -1.41, 58.72 3.93, 65.82 7.97 C72.92 12.02, 76.92 17.98, 80.41 24.05 C83.9 30.12, 87.16 36.89, 86.76 44.39 C86.36 51.9, 82.92 62.18, 77.99 69.08 C73.07 75.98, 64.51 83.38, 57.23 85.77 C49.96 88.17, 41.29 84.85, 34.34 83.45 C27.39 82.04, 21.5 82.15, 15.52 77.34 C9.54 72.52, 0.43 63.05, -1.53 54.55 C-3.49 46.05, 0.64 34.2, 3.78 26.32 C6.93 18.45, 10.97 11.61, 17.35 7.3 C23.74 3, 38.75 1.3, 42.1 0.5 C45.45 -0.3, 38.05 1.71, 37.43 2.49" stroke="#1e1e1e" stroke-width="4" fill="none"></path></g><g stroke-linecap="round" transform="translate(22.57142857142844 991.4285714285711) rotate(0 41.21428571428578 41.21428571428578)"><path d="M82.43 41.21 C82.43 43.17, 82.29 45.14, 82.01 47.08 C81.73 49.01, 81.31 50.95, 80.76 52.83 C80.21 54.7, 79.52 56.56, 78.7 58.34 C77.89 60.11, 76.94 61.85, 75.89 63.5 C74.83 65.14, 73.64 66.73, 72.36 68.2 C71.08 69.68, 69.68 71.08, 68.2 72.36 C66.73 73.64, 65.14 74.83, 63.5 75.89 C61.85 76.94, 60.11 77.89, 58.34 78.7 C56.56 79.52, 54.7 80.21, 52.83 80.76 C50.95 81.31, 49.01 81.73, 47.08 82.01 C45.14 82.29, 43.17 82.43, 41.21 82.43 C39.26 82.43, 37.28 82.29, 35.35 82.01 C33.41 81.73, 31.48 81.31, 29.6 80.76 C27.73 80.21, 25.87 79.52, 24.09 78.7 C22.31 77.89, 20.58 76.94, 18.93 75.89 C17.29 74.83, 15.7 73.64, 14.22 72.36 C12.75 71.08, 11.35 69.68, 10.07 68.2 C8.79 66.73, 7.6 65.14, 6.54 63.5 C5.49 61.85, 4.54 60.11, 3.72 58.34 C2.91 56.56, 2.22 54.7, 1.67 52.83 C1.12 50.95, 0.7 49.01, 0.42 47.08 C0.14 45.14, 0 43.17, 0 41.21 C0 39.26, 0.14 37.28, 0.42 35.35 C0.7 33.41, 1.12 31.48, 1.67 29.6 C2.22 27.73, 2.91 25.87, 3.72 24.09 C4.54 22.31, 5.49 20.58, 6.54 18.93 C7.6 17.29, 8.79 15.7, 10.07 14.22 C11.35 12.75, 12.75 11.35, 14.22 10.07 C15.7 8.79, 17.29 7.6, 18.93 6.54 C20.58 5.49, 22.31 4.54, 24.09 3.72 C25.87 2.91, 27.73 2.22, 29.6 1.67 C31.48 1.12, 33.41 0.7, 35.35 0.42 C37.28 0.14, 39.26 0, 41.21 0 C43.17 0, 45.14 0.14, 47.08 0.42 C49.01 0.7, 50.95 1.12, 52.83 1.67 C54.7 2.22, 56.56 2.91, 58.34 3.72 C60.11 4.54, 61.85 5.49, 63.5 6.54 C65.14 7.6, 66.73 8.79, 68.2 10.07 C69.68 11.35, 71.08 12.75, 72.36 14.22 C73.64 15.7, 74.83 17.29, 75.89 18.93 C76.94 20.58, 77.89 22.31, 78.7 24.09 C79.52 25.87, 80.21 27.73, 80.76 29.6 C81.31 31.48, 81.73 33.41, 82.01 35.35 C82.29 37.28, 82.36 40.24, 82.43 41.21 C82.5 42.19, 82.5 40.24, 82.43 41.21" stroke="none" stroke-width="0" fill="#ffffff"></path><path d="M82.43 41.21 C82.43 43.17, 82.29 45.14, 82.01 47.08 C81.73 49.01, 81.31 50.95, 80.76 52.83 C80.21 54.7, 79.52 56.56, 78.7 58.34 C77.89 60.11, 76.94 61.85, 75.89 63.5 C74.83 65.14, 73.64 66.73, 72.36 68.2 C71.08 69.68, 69.68 71.08, 68.2 72.36 C66.73 73.64, 65.14 74.83, 63.5 75.89 C61.85 76.94, 60.11 77.89, 58.34 78.7 C56.56 79.52, 54.7 80.21, 52.83 80.76 C50.95 81.31, 49.01 81.73, 47.08 82.01 C45.14 82.29, 43.17 82.43, 41.21 82.43 C39.26 82.43, 37.28 82.29, 35.35 82.01 C33.41 81.73, 31.48 81.31, 29.6 80.76 C27.73 80.21, 25.87 79.52, 24.09 78.7 C22.31 77.89, 20.58 76.94, 18.93 75.89 C17.29 74.83, 15.7 73.64, 14.22 72.36 C12.75 71.08, 11.35 69.68, 10.07 68.2 C8.79 66.73, 7.6 65.14, 6.54 63.5 C5.49 61.85, 4.54 60.11, 3.72 58.34 C2.91 56.56, 2.22 54.7, 1.67 52.83 C1.12 50.95, 0.7 49.01, 0.42 47.08 C0.14 45.14, 0 43.17, 0 41.21 C0 39.26, 0.14 37.28, 0.42 35.35 C0.7 33.41, 1.12 31.48, 1.67 29.6 C2.22 27.73, 2.91 25.87, 3.72 24.09 C4.54 22.31, 5.49 20.58, 6.54 18.93 C7.6 17.29, 8.79 15.7, 10.07 14.22 C11.35 12.75, 12.75 11.35, 14.22 10.07 C15.7 8.79, 17.29 7.6, 18.93 6.54 C20.58 5.49, 22.31 4.54, 24.09 3.72 C25.87 2.91, 27.73 2.22, 29.6 1.67 C31.48 1.12, 33.41 0.7, 35.35 0.42 C37.28 0.14, 39.26 0, 41.21 0 C43.17 0, 45.14 0.14, 47.08 0.42 C49.01 0.7, 50.95 1.12, 52.83 1.67 C54.7 2.22, 56.56 2.91, 58.34 3.72 C60.11 4.54, 61.85 5.49, 63.5 6.54 C65.14 7.6, 66.73 8.79, 68.2 10.07 C69.68 11.35, 71.08 12.75, 72.36 14.22 C73.64 15.7, 74.83 17.29, 75.89 18.93 C76.94 20.58, 77.89 22.31, 78.7 24.09 C79.52 25.87, 80.21 27.73, 80.76 29.6 C81.31 31.48, 81.73 33.41, 82.01 35.35 C82.29 37.28, 82.36 40.24, 82.43 41.21 C82.5 42.19, 82.5 40.24, 82.43 41.21" stroke="#1e1e1e" stroke-width="4" fill="none"></path></g></svg>